<svg id="Шар_4" data-name="Шар 4" xmlns="http://www.w3.org/2000/svg" viewBox="0 0 198.33 196.89">
  <defs>
    <style>
      .cls-1 {
        fill: #211a1e;
      }
    </style>
  </defs>
  <path class="cls-1" d="M700.86,1042.73c.41-.42-.35-1.79,1.57-.59a30.68,30.68,0,0,1,6.82,7.11c1.83,2.62,3.55,5.23,5.74,8l1.08-.13a72.48,72.48,0,0,1,6.44,15.52,74.15,74.15,0,0,1,4.77,30.86c.36-.24.69-.34.74.72s-.2,2.31-.35,3.59-.47,2.63-.77,4-.68,2.85-1.18,4.3l-.69,2.21c-.26.73-.53,1.47-.8,2.21-.22.91-.52,1.8-.81,2.67a1.47,1.47,0,0,0,.32,1.23c-.53,1.35-1.19,2.55-1.73,3.73s-1.24,2.22-1.81,3.25a74.71,74.71,0,0,1-57.77,42.19,75.6,75.6,0,0,1-27.18-1.14c-2-.28-3.91-.76-5.87-1.2s-3.87-1-5.75-1.74a60,60,0,0,1-10.83-4.94,65.65,65.65,0,0,1-7.49-5.36,73.72,73.72,0,0,1-7-6.78,82.11,82.11,0,0,1-10.91-15.18c-.49.79-1.88,0-3.55-1.75a48.36,48.36,0,0,1-5.39-7c-3.51-5.33-6.13-10.91-7-7.56a100.92,100.92,0,0,1-2.63-13.3c-.58-4.19-.87-7.47-1.34-7.78-1.44-.93-3.13-3-4.27-7.94a42.13,42.13,0,0,1-.95-9.71,64.9,64.9,0,0,1,2-14.94,68.71,68.71,0,0,1,6.29-14.66c2.54-4.58,5.16-8.19,5.83-9.74.45-1.08.2-1.14-.41-.68a29.94,29.94,0,0,0-2.74,2.84c-2.06,2.37-4,4.9-3.1,2.32a97.71,97.71,0,0,0-13.62,51.53,98.77,98.77,0,0,0,15,50.78,100.38,100.38,0,0,0,91.08,47,129.06,129.06,0,0,0,15.16-2.57c1.69-.45,3.5-.83,5.36-1.43l2.86-.88c1-.31,1.95-.68,3-1,2-.68,4.06-1.58,6.19-2.45s4.27-1.93,6.42-3.11a100,100,0,0,0,25.74-19.34,98.55,98.55,0,0,0,27.54-65.9,97.53,97.53,0,0,0-5.08-34.1,98.8,98.8,0,0,0-13.32-26.06A102.54,102.54,0,0,0,722.45,1024l-2.92-2.48a94,94,0,0,0-14.78-10.21,91.78,91.78,0,0,0-17-7.35,85.87,85.87,0,0,0-33.3-3.74,90.62,90.62,0,0,0-25.48,6.82,74.11,74.11,0,0,1,11-1c-8.59,1.39-16.8,4.52-19.58,6.41-1,.55-1.93,1-2.74,1.51s-1.48,1-2.09,1.36a17.29,17.29,0,0,0-2.61,2c-1.1,1.07-1,1.53-.33,1.63,1.44.18,5.61-1,9.14-1.22,2.39-.51,2.23.25,2.41.87s.66,1.1,4.19.29l-3.26,1.22-2.76,1.19c-.9.36-1.77.81-2.72,1.27s-2,1-3.12,1.6c0,.55,3.39-1.51,6.69-3a29.11,29.11,0,0,1,4.24-1.67c1-.28,1.4-.21.71.47-4.78,1.38-9.56,4.32-13.93,7,1.08,0,5-2,8.69-3.63l2.72-1.1c.86-.32,1.67-.56,2.34-.76,1.34-.4,2.19-.49,2.11-.12a26.5,26.5,0,0,1-3.18,1.08c-1.41.4-3,1-4.61,1.52a31.16,31.16,0,0,0-4.12,1.89c-1.08.65-1.78,1.24-1.79,1.7,0,.18,1.1-.33,2.46-1s3.08-1.49,4.21-2c-6.88,3.49-11.43,7.43-12.85,9.25-.7,1-.65,1.37.31,1.13a20.57,20.57,0,0,0,2.17-.81l3.73-1.72-1.57.93-1.66,1.06c-1.17.69-2.33,1.5-3.51,2.31s-2.29,1.71-3.39,2.57-2,1.82-2.91,2.69h.05a85.28,85.28,0,0,1,7.08-5.54c-.56.42-1.13.82-1.67,1.26l-1.62,1.34c-1.1.86-2.1,1.85-3.15,2.77.48-.14,1-.31,1.53-.51l1.23-1,1.27-.92c.84-.62,1.67-1.28,2.55-1.9-.75.53-1.46,1.11-2.16,1.7s-1.44,1.14-2.1,1.78c1.35-.55,2.89-1.16,4.49-1.87,5.7-3.2,11.63-4.84,14.64-6.22a72.35,72.35,0,0,1,39.34-5.81A71.28,71.28,0,0,1,700.86,1042.73Z" transform="translate(-556.42 -999.9)"/>
</svg>
