<svg id="Шар_2" data-name="Шар 2" xmlns="http://www.w3.org/2000/svg" viewBox="0 0 620.08 629.42">
  <defs>
    <style>
      .cls-1 {
        fill: #dec7ab;
      }
    </style>
  </defs>
  <path class="cls-1" d="M528.12,199c.73-1.1-3-4.3,3.92-1.71l2,.83c.65.3,1.29.63,1.92,1,1.26.64,2.51,1.28,3.73,1.94s2.43,1.31,3.62,2l1.77,1c.58.34,1.13.73,1.7,1.09,2.24,1.49,4.43,3,6.6,4.49,1.07.76,2.18,1.46,3.2,2.29l3.08,2.43,6.18,4.84c2,1.69,4,3.42,6.1,5.1,4.23,3.26,8.29,6.94,13,10.35.86-.19,1.77-.36,2.67-.53A250.26,250.26,0,0,1,622.69,277a259.41,259.41,0,0,1,43.95,93.54c.52-1,1.18-1.64,2.18,1.7.8,3.54,1.65,7.44,2.41,11.63l.9,6.52q.21,1.68.45,3.39l.22,1.73.13,1.76c.18,2.36.37,4.77.56,7.21.08,1.22.21,2.45.25,3.7s.07,2.5.1,3.76c.07,2.51.15,5.06.22,7.63s-.07,5.16-.11,7.77c.06,1.54.12,3.08.19,4.61s0,3.06-.06,4.57c.34,2.39,1,3,1.49,3.45-.16,4.74-.84,9.18-1.3,13.41-.12,1.06-.25,2.11-.37,3.14s-.35,2-.52,3c-.36,2-.7,4-1,5.88-.26,3.21-.83,6.37-1.32,9.55s-.92,6.38-1.64,9.53-1.26,6.34-2,9.49-1.61,6.28-2.42,9.42a272.66,272.66,0,0,1-13.17,36.89,285.7,285.7,0,0,1-18.94,35,295.43,295.43,0,0,1-24.46,32.28,285.86,285.86,0,0,1-29.68,28.58l-8.2,6.48c-.67.56-1.38,1.07-2.09,1.56l-2.14,1.52-4.28,3c-2.81,2.11-5.82,3.93-8.79,5.85l-4.46,2.86c-1.5.94-3.06,1.77-4.59,2.67l-4.63,2.65-2.31,1.33c-.78.44-1.59.82-2.38,1.23l-9.57,4.88-9.85,4.43c-1.64.78-3.33,1.4-5,2.07l-5.06,2A276.71,276.71,0,0,1,463,691l-9.26,2.05c-.78.16-1.55.36-2.33.49l-2.34.4-4.69.8-4.69.79c-1.56.27-3.14.39-4.71.59-3.15.36-6.29.75-9.44,1.07-6.3.37-12.61.93-18.88.81l-4.7,0h-2.34l-2.34-.12-9.3-.53c-1.14-.06-2.29-.2-3.44-.36l-3.49-.46-7.12-1c-2.4-.4-4.8-.91-7.24-1.37s-4.9-.9-7.36-1.49l-7.39-1.87-3.72-.95c-1.25-.29-2.46-.74-3.7-1.1-4.91-1.57-9.91-3-14.73-4.88a282,282,0,0,1-52.89-26.07c.22,2.26-4.51,1.53-11.29-1.34a105.63,105.63,0,0,1-11.54-5.42c-4.11-2.22-8.57-4.56-12.75-7.14-8.45-5.06-16.33-10.44-21.59-13.49s-8.06-3.61-6.15,1a337.39,337.39,0,0,1-27.16-31.28c-7.9-10.23-13.55-18.53-15-18.8a11.79,11.79,0,0,1-1.87-.72,10.16,10.16,0,0,1-2.12-1.27c-.7-.53-1.48-1.25-2.23-1.93s-1.43-1.18-2.18-1.88a72.18,72.18,0,0,1-10.58-13.08,172.67,172.67,0,0,1-13.35-25,258.55,258.55,0,0,1-14.22-41.5,221.51,221.51,0,0,1-5.15-47.31c-.24-15.92,1.81-29.91,1.86-35.22,0-3.6-.57-3.38-1.42-1.25l-.33.88c-.12.35-.24.79-.36,1.22-.25.88-.5,1.87-.77,2.93l-.81,3.37c-.28,1.17-.48,2.36-.72,3.57-1.93,9.63-3,19.31-3.86,11-1,28,2.91,54.29,8.87,79.4,3,12.55,6.61,24.82,10.71,36.87q3.06,9,6.54,18c1.17,3,2.35,5.95,3.6,8.93l1.92,4.5,1,2.28.56,1.27.93,2,.95,2c.34.65.76,1.27,1.14,1.89l1.85,2.94c.87,1.39,1.74,2.78,2.66,4.15l2.72,4.11,2.81,4.06c3.78,5.38,7.69,10.66,11.81,15.77,2,2.59,4.16,5.08,6.26,7.61s4.28,5,6.51,7.38c4.39,4.88,9,9.57,13.66,14.15A298.69,298.69,0,0,0,227.64,678l7.87,5.85c2.67,1.89,5.42,3.66,8.13,5.5l4.08,2.72,2.05,1.35,2.1,1.27,8.44,5c1.41.82,2.78,1.72,4.24,2.46l4.34,2.31,8.69,4.59,8.9,4.17,4.45,2.07c1.48.71,3,1.27,4.53,1.91l9.11,3.71c1.51.64,3.06,1.18,4.6,1.72l4.64,1.63,4.64,1.63,2.33.81c.77.26,1.56.47,2.35.71l9.43,2.8c3.13,1,6.33,1.72,9.52,2.5s6.36,1.58,9.57,2.29l9.66,1.87,4.84.92,4.87.7,9.75,1.39c3.27.35,6.54.63,9.81.95l4.91.45c1.63.16,3.28.18,4.92.28l9.85.44a321,321,0,0,0,39.45-1.45l4.92-.48,2.46-.24,2.45-.35,9.8-1.42c3.28-.42,6.5-1.15,9.75-1.75l4.87-1c1.62-.32,3.25-.6,4.86-1,6.42-1.6,12.9-3,19.23-5,3.17-1,6.38-1.83,9.53-2.87l9.42-3.26c1.56-.56,3.15-1.07,4.69-1.68l4.64-1.85c3.09-1.25,6.19-2.46,9.26-3.75l9.1-4.16,4.55-2.1,4.46-2.3,7-4,2.07-1.17,2.13-1.32,4.64-2.86,5.09-3.13c1.78-1.07,3.53-2.36,5.41-3.6l5.79-3.94c1-.68,2-1.35,3-2.08l3-2.27a331.45,331.45,0,0,0,55-50.8l7-8.52c1.16-1.45,2.37-2.87,3.51-4.37l3.37-4.57,3.41-4.64c1.12-1.56,2.32-3.09,3.37-4.74l6.53-9.88a336.5,336.5,0,0,0,23.33-43.88,321.63,321.63,0,0,0,16.72-49.82,313.65,313.65,0,0,0-2.82-161.54l-1.89-6.42c-.63-2.14-1.24-4.28-2-6.36-1.46-4.19-2.87-8.37-4.38-12.49l-4.88-12.16c-1.69-4-3.57-7.89-5.34-11.79a328.25,328.25,0,0,0-24.84-43.2,344.85,344.85,0,0,0-28.72-35.85l-7.49-7.69c-1.24-1.25-2.46-2.5-3.68-3.74l-3.78-3.51-7.38-6.83c-2.47-2.16-5-4.2-7.39-6.24a324.22,324.22,0,0,0-51.22-35l-5-2.63-2.52-1.31L558.15,144a289.58,289.58,0,0,0-49.49-19.38,299.11,299.11,0,0,0-53.85-10.43,282.61,282.61,0,0,0-99,7.51c-3.16.89-6.28,1.93-9.41,2.9L341.71,126c-1.57.48-3.1,1.12-4.65,1.67l-9.24,3.45c-3.06,1.2-6.06,2.57-9.08,3.85l-4.52,2c-1.51.63-3,1.42-4.45,2.12l-8.83,4.35c-2.91,1.49-5.75,3.15-8.62,4.72s-5.72,3.13-8.47,4.9c1.42-.53,2.79-1.13,4.21-1.6l4.19-1.4,8.07-2.67c5.31-1.55,10.36-2.84,15-4.06l-9.1,3.56-4.49,1.77-4.34,2L289,154.43c-2.67,1.33-5.22,2.7-7.67,4l-3.57,1.9c-1.16.62-2.3,1.22-3.35,1.88q-3.18,1.94-5.9,3.66c-1.8,1.14-3.43,2.21-4.85,3.18s-2.58,2-3.54,2.78c-2.81,2.05-5.32,3.92-7.56,5.61s-4.09,3.4-5.76,4.83-3.08,2.73-4.28,3.86a34.06,34.06,0,0,0-2.91,3c-3,3.49-2.85,4.58-.86,4.25a20.83,20.83,0,0,0,4.22-1.42c1.81-.7,4-1.57,6.31-2.57l7.36-3.17c2.58-1,5.21-2,7.7-2.81,6.78-3.06,6.41-1.14,6.94.19.28.69.73,1.17,2.45,1s4.64-1.17,9.77-3.49l-9.44,5.39-7.9,5-3.87,2.47-3.9,2.77-4.22,3c-1.47,1.06-3.06,2.11-4.63,3.4,0,.35.56.12,1.59-.54s2.57-1.63,4.36-2.9,3.9-2.79,6.11-4.41c1.09-.83,2.29-1.57,3.46-2.36l3.55-2.35,3.47-2.28c1.12-.74,2.21-1.45,3.29-2,2.12-1.21,4-2.24,5.46-3,2.91-1.43,4.09-1.59,2.1.56-13.89,6.92-27.61,17.76-39.9,28,1.55-.31,5.06-2.57,9.45-5.72,1.08-.82,2.3-1.57,3.53-2.4l3.81-2.57c2.6-1.76,5.26-3.66,8-5.28l7.85-4.83c2.51-1.44,4.87-2.62,6.82-3.62,3.94-2,6.41-2.92,6.22-2a91.9,91.9,0,0,1-9.3,5.08c-2.1,1-4.27,2.24-6.53,3.5l-6.87,3.86c-4.46,2.74-8.67,5.59-11.84,7.94-3,2.52-5,4.6-5.08,5.76,0,.48,3.06-1.8,7-4.65,2-1.37,4.23-2.91,6.34-4.4s4.1-2.94,5.8-4l-1.87,1.27-1.78,1.35-3.46,2.64-3.34,2.56c-1.08.85-2.17,1.65-3.15,2.54l-5.73,5c-1.81,1.6-3.55,3.08-5,4.64-3.06,3.06-5.69,5.77-7.83,8.08s-3.59,4.43-4.61,5.93c-2.05,3-2,4.06.74,2.65a51.52,51.52,0,0,0,6-4c1.32-1,3-2.06,4.73-3.34s3.76-2.68,5.93-4.28c-2.8,2.46-6,5.07-9.3,7.88s-6.61,5.94-9.94,9.08-6.5,6.5-9.51,9.78-5.68,6.69-8.14,9.8a.61.61,0,0,0,.12-.05c1.3-1.5,2.86-3.25,4.53-5.12l2.58-2.88c.89-1,1.74-2,2.71-2.92l5.44-5.47c1.72-1.72,3.21-3.36,4.56-4.58l-1.21,1.16c-.39.4-.77.82-1.15,1.22l-2.3,2.46-4.61,4.91L221.53,250c-.38.41-.73.85-1.09,1.28l-2.18,2.57L213.9,259c1.29-.78,2.69-1.7,4.14-2.68,4.5-4.95,9.43-9.5,14.16-14.58q-3,3.22-6.07,6.46l-3,3.24-2.88,3.39c3.62-2.74,8-5.6,12.49-9,1.92-1.77,4.05-3.3,6.08-4.87l6-4.59,6.06-4.11c2-1.31,3.84-2.66,5.75-3.83,3.84-2.31,7.33-4.54,10.47-6.51s6-3.6,8.26-5.2l1.71-1.19,1.77-1.09,3.54-2.2,3.54-2.2,1.76-1.1,1.83-1,7.27-4c.61-.33,1.21-.69,1.82-1l1.87-.91,3.74-1.84c4.91-2.58,10.06-4.66,15.13-6.91,1.26-.58,2.57-1,3.87-1.53l3.88-1.48c2.6-1,5.17-2,7.83-2.82l7.9-2.58c2.65-.81,5.34-1.48,8-2.23l4-1.11c1.34-.35,2.7-.61,4.05-.92l8.1-1.83,8.18-1.44c1.37-.23,2.73-.49,4.09-.71l4.12-.52c2.75-.33,5.49-.73,8.23-1l8.27-.66C444,171.4,488.7,179.76,528.12,199Z" transform="translate(-113.16 -112.7)"/>
</svg>
