<?xml version="1.0" standalone="no"?>
<!DOCTYPE svg PUBLIC "-//W3C//DTD SVG 20010904//EN"
 "http://www.w3.org/TR/2001/REC-SVG-20010904/DTD/svg10.dtd">
<svg version="1.0" xmlns="http://www.w3.org/2000/svg"
 width="629.000000pt" height="629.000000pt" viewBox="0 0 629.000000 629.000000"
 preserveAspectRatio="xMidYMid meet">
<metadata>
Created by potrace 1.11, written by Peter Selinger 2001-2013
</metadata>
<g transform="translate(0.000000,629.000000) scale(0.100000,-0.100000)"
fill="#000000" stroke="none">
<path d="M2925 6280 c-364 -37 -673 -128 -995 -292 -140 -72 -176 -94 -124
-79 16 5 67 21 113 35 46 14 86 24 88 22 3 -2 -6 -7 -19 -11 -49 -16 -223 -98
-309 -146 -161 -91 -410 -292 -394 -319 3 -6 24 -2 53 9 208 84 253 101 261
101 5 0 14 -7 22 -16 8 -10 21 -13 38 -9 40 11 81 17 81 12 0 -2 -38 -27 -85
-56 -80 -49 -206 -141 -270 -196 -32 -28 -19 -24 30 9 30 20 30 20 13 0 -26
-30 -22 -39 10 -19 15 10 -17 -24 -71 -75 -93 -88 -165 -175 -154 -187 3 -2
34 14 69 38 61 41 59 39 -47 -63 -110 -106 -198 -211 -158 -190 11 6 25 18 33
26 7 9 18 16 24 16 6 1 45 27 86 60 284 224 714 475 984 575 361 133 808 183
1196 135 226 -29 524 -111 705 -194 46 -21 81 -32 83 -26 14 42 192 -64 424
-252 82 -67 152 -117 158 -113 12 8 128 -111 217 -223 78 -97 272 -383 328
-482 94 -166 185 -384 235 -564 12 -44 28 -85 35 -92 33 -34 63 -314 67 -624
2 -203 0 -226 -31 -403 -75 -438 -217 -787 -455 -1121 -258 -360 -575 -630
-977 -830 -425 -212 -991 -328 -1401 -287 -338 33 -718 159 -1013 336 -61 36
-91 48 -126 49 -59 2 -239 91 -438 216 -143 89 -171 102 -171 78 0 -28 -167
159 -314 352 -50 66 -102 122 -120 132 -142 74 -344 444 -436 804 -52 200 -63
323 -57 629 3 149 1 260 -3 248 -5 -11 -18 -68 -30 -125 -11 -56 -25 -111 -30
-120 -23 -42 0 -371 41 -587 66 -346 226 -822 336 -1000 115 -185 288 -395
466 -568 532 -515 1200 -817 1952 -882 549 -48 1166 71 1658 318 453 229 906
632 1198 1067 337 502 517 1065 536 1674 20 640 -166 1291 -522 1825 -304 457
-755 855 -1222 1080 -316 153 -590 237 -923 286 -156 23 -505 33 -645 19z
m-1145 -724 c-8 -7 -60 -36 -115 -65 -55 -28 -89 -43 -75 -32 22 18 188 110
200 111 2 0 -2 -6 -10 -14z m-220 -121 c0 -2 -10 -9 -22 -15 -22 -11 -22 -10
-4 4 21 17 26 19 26 11z"/>
</g>
</svg>
