<svg id="Шар_3" data-name="Шар 3" xmlns="http://www.w3.org/2000/svg" viewBox="0 0 317.2 169.58">
  <defs>
    <style>
      .cls-1 {
        fill: #211a1e;
        stroke: #211a1e;
        stroke-miterlimit: 10;
      }
    </style>
  </defs>
  <path class="cls-1" d="M324.61,115.11c-.16-.37-1.14-.3,0-1.13,3.79-2.34,7.56-2.59,11.58-4.4l.08-.72c1.65-.5,3.41-.79,5.15-1.2l.33-.07c.11,0,.23,0,.22,0l.15,0,.27.06.25.06c.07,0,.18,0,.16.08a5.44,5.44,0,0,1,1.58-.72,13.32,13.32,0,0,1,1.29-.74,1,1,0,0,1,.73-.06c.17,0-.14.11-.32.18l-.53.22.06,0,1.05-.53a10.93,10.93,0,0,0-1.05.6,5.25,5.25,0,0,0-.27.72,4.21,4.21,0,0,0-.11.61c0,.26,0,.42-.14,1l-.44,2c-.14.69-.28,1.4-.38,2.08-.24,1.37-.38,2.7-.51,4-.25,2.6-.37,5.06-.52,7.41s-.34,4.56-.63,6.86a101.14,101.14,0,0,1-2.73,13.85c-1.31,4.66-2.73,9.31-5,12.85a12.94,12.94,0,0,1-3.72,4.39,11.82,11.82,0,0,1-5.57,2c-3.18.37-7.22-.15-11.54-.12A59.7,59.7,0,0,0,302,165.56c.78,1-3.08,2.71-6.27,4.8a14.73,14.73,0,0,0-3.73,3c-.64.91-.52,1.5.35,1.61a6.37,6.37,0,0,0-2,2c-.26.38-.61,1-.91,1.5l-.88,1.58c-1.07,2-1.74,3.7-1.53,4,.64.91,1.07,2.38.94,5A89.76,89.76,0,0,1,286,200.87c-.51,2.15-1.36,4.82-2,7.18a22.43,22.43,0,0,0-1,5.21c.06.69.23.66.46.27a15.87,15.87,0,0,0,.81-1.71c.58-1.33,1.2-2.64,1.28-1.4A96.22,96.22,0,0,1,293.4,188c.89-1.76,1.81-3.51,2.81-5.21.24-.43.5-.86.64-1.09s0,0,0-.05h0l0,0,.24-.11,1.15-.46c.84-.34,1.69-.63,2.55-.92a47,47,0,0,1,5.24-1.4,49,49,0,0,1,10.83-1c1.93,0,4.26.17,7,.13a33.51,33.51,0,0,0,9.46-1.35,24.86,24.86,0,0,0,5.17-2.27,25.52,25.52,0,0,0,4.42-3.26,32,32,0,0,0,3.43-3.73,37.32,37.32,0,0,0,2.59-3.82,55.85,55.85,0,0,0,3.62-7.41c.94-2.34,1.78-4.61,2.57-7a164.47,164.47,0,0,0,3.66-16.66c.32-2,.61-4.2.85-6.34s.45-4.24.72-6.24a42.09,42.09,0,0,1,1.1-5.52,2,2,0,0,1,.1-.28l.14-.36.27-.72a5.7,5.7,0,0,1,.71-1.49l1-1.59c.09-.26.53-.55.82-.83l1-.84,1-.84.24-.21.06-.06.19-.07.37-.16,1.47-.6,5.91-2.44.74-.31.09,0a.62.62,0,0,1,.19-.07l.79-.23,1.58-.48,6.32-1.9L397,97l39.18-11.74-30.11.08-6.58,0-4.16,0c-2.18,0-3.52-.08-4.43-.13a12.65,12.65,0,0,1-1.64-.14c-.5-.09-.13-.17.58-.25l1.36-.12.86,0,.46,0h-.69l-17.17.25c-2.69,0-5.32.07-8.05.22l-4,.17c-.64,0-1.37.1-2.08.18l-2.12.23-4.18.44c-1.39.17-2.87.48-4.27.71l-4.21.73c-1.38.24-2.65.63-4,.93l-3.81.94-.94.23-.23,0-.16.05-.28.09-1.12.35c-1.49.47-2.94.87-4.3,1.36l-3.9,1.4c-1.23.47-2.38,1-3.48,1.4-2.19.85-4,1.8-5.58,2.48-.64.3-1.26.63-1.87,1a86.44,86.44,0,0,0-16.9,11.18c-1.28,1.14-2.53,2.29-3.76,3.43s-2.35,2.35-3.44,3.57a51,51,0,0,0-5.61,7.48A43.06,43.06,0,0,0,283,130.8a45.54,45.54,0,0,0-2,7.83,37.6,37.6,0,0,1,3.33-5.84c-2.26,4.77-3.31,10-3.16,12a17.68,17.68,0,0,0,.31,5.35c.23.89.54,1,.84.66a8.43,8.43,0,0,0,1.05-2.06,29.93,29.93,0,0,1,1.4-2.92c.54-1.35.94-1,1.36-.91s.86,0,1.61-1.94a38.68,38.68,0,0,0-1,7.43c.32.18.28-2.12.54-4.19.07-.52.13-1,.21-1.47a9.34,9.34,0,0,1,.28-1.11c.18-.57.35-.74.52-.18-.84,2.74-.75,6-.7,8.89.43-.52.47-3,.84-5.33s.93-4.36,1.31-4c-.08.76-.77,2.66-1.14,4.53-.09.47-.17.93-.24,1.37s-.06.84-.07,1.2c0,.72.11,1.23.39,1.37s.3-2.73.49-4.14c-.31,4.38.43,7.72,1.06,8.89s.94.29,1.29-3.43c0,2.55.2,6.26,1.19,8.82v0a38,38,0,0,1-.85-4.87,31.35,31.35,0,0,0,1,4.5q.12-.42.21-.9c-.1-.55-.16-1.12-.24-1.69l-.25-1.71c.14,1,.36,2,.59,2.94.17-.82.28-1.71.45-2.68,0-3.56,1.18-6.75,1.37-8.5a31.07,31.07,0,0,1,3.08-10.23,35.81,35.81,0,0,1,6.53-8.81,52.19,52.19,0,0,1,4.47-4.12c.8-.66,1.57-1.35,2.38-2l2.48-1.87A85.05,85.05,0,0,1,324.61,115.11Z" transform="translate(-122.43 -47.47)"/>
  <path class="cls-1" d="M244.7,66.78c-.21.35,1,1.33-1.22.54-3.42-1.3-6.2-2.58-9-3.92a53.94,53.94,0,0,0-9.07-3.49l-.68.46c-5-1.92-10.25-3.86-15.72-5.54-5.11-1.24-10.24-2.32-15.4-3.19-2.57-.47-5.16-.82-7.74-1.2L182,50l-2.19-.26-3.58-.35c.52.3.74.54-1.1.43s-4-.42-6.24-.57l-7-.5c-1.25-.11-2.46-.16-3.69-.22l-3.78-.17L146.55,48l-4.4,0c-1,.11-.86.34-.8.48l-6.82-.25-.82,0h-.48l-.45,0-.46,0-.61,0-1.11.15-.55.08-.13,0-.21,0-.55,0-2.23.15-1.14.08-1.8.08,18.84,12.56c2.57,1.74,5.46,3.64,7.23,5l3,2.17.75.55c.2.17.33.32.5.49l1,1,1.9,1.92c.15.16.33.32.46.48l.37.47.73,1,1.46,1.89c.48.62.89,1.27,1.31,1.9l.54.86.32.48.62,1c.41.66.82,1.33,1.2,2a110.33,110.33,0,0,1,8,18.18c2.35,6.56,4.52,13.53,7.24,20.61a96.45,96.45,0,0,0,10.65,21,61.11,61.11,0,0,0,15.71,14.8,48.46,48.46,0,0,0,7.3,4,51.57,51.57,0,0,0,8.33,2.69,85.56,85.56,0,0,0,16.2,1.78c-.7-1.15,4.76-2,9.77-2.78s9.76-1.29,7.51-2.62a77.34,77.34,0,0,1,10.64,1.5c3.35.73,5.9,1.75,6.29,1.55a5.07,5.07,0,0,1,2.58-.41,12.74,12.74,0,0,1,4.91,1.43,18,18,0,0,1,3.41,2.24,20.55,20.55,0,0,1,3.66,3.92,28.43,28.43,0,0,1,4.91,13,41.08,41.08,0,0,1-1.16,13.26c-.93,4-1.88,6.95-2,8.12-.15,1.84.71-.09,1.59-2.16s1.74-4.3,1.59-2.27a67.55,67.55,0,0,0,1.88-10.56,42,42,0,0,0,.11-6,37.57,37.57,0,0,0-.84-6.22A29.35,29.35,0,0,0,276,156.85a44.33,44.33,0,0,0-11.2-3.59,79.38,79.38,0,0,0-10.3-1.18c-3.31-.2-6.48-.22-9.53-.24s-6,0-8.79-.07a79.45,79.45,0,0,1-8-.5,38.48,38.48,0,0,1-7-1.4c-1.11-.29-2.1-.74-3.14-1.11l-1.47-.7c-.48-.23-.95-.53-1.43-.79a31.35,31.35,0,0,1-5.45-4.08,47,47,0,0,1-9-11.87,71.54,71.54,0,0,1-3.46-7.21c-1.06-2.54-2-5.2-2.91-8-.66-1.63-1.63-4.33-2.81-8s-2.58-8.43-4.38-14a130.64,130.64,0,0,0-7.47-18.66c-.85-1.67-1.77-3.36-2.77-5l-.09-.15,0,0-.05-.07-.09-.12-.18-.24a9.62,9.62,0,0,0-1-1,6.55,6.55,0,0,0-.76-.57c-.26-.12,0-.08.12-.1h.41c.57,0,1.17,0,1.79.06l.47,0,.24,0h.12l.43.06c2.21.31,4.42.59,6.58,1,4.35.67,8.56,1.53,12.6,2.39a212.3,212.3,0,0,1,36.47,11.52l2.23.91a49.7,49.7,0,0,1,9,5,23.53,23.53,0,0,1,3.54,3.11c.58.53,1,1.2,1.59,1.78s1,1.3,1.46,2c3.77,5.5,6.36,12.74,8.81,18.92,1.19,2.83,2.43,5.76,3.8,8.74s2.94,6,4.44,8.71c-.77-2.83-1.49-5.57-1.95-8,1.11,3.13,2.36,6.14,3.42,8.59a52.61,52.61,0,0,0,2.58,5.4c1.42,2.93,2.27,4.67,2.83,5.57s.88,1,1.05.47c.37-1,0-4.11-.18-6.8-.75-3.69,2.13.58.56-5.1,1.57,3.92,2.39,5.89,3.67,10,.4.13-.69-3-1.81-5.76s-2.14-5.19-1.08-4.05c1.33,3.86,3.43,8,4.49,12.29.28-.86-.73-4.55-1.91-7.8s-2.33-6.18-1.8-6.05a56.14,56.14,0,0,1,2.25,6.63c.84,2.74,1.53,5.36,2.18,5.62a7.59,7.59,0,0,0-.49-2.31c-.4-1.29-.93-2.86-1.32-3.87,1.27,3.1,2.3,6,3,8.36s1.18,4.29,1.53,5.35.58,1.27.78.33a10.23,10.23,0,0,0,.13-2.27,29.53,29.53,0,0,0-.36-4.08,39.78,39.78,0,0,1,1,8.08,47.43,47.43,0,0,1-.78,8.66l0,0c.12-.65.27-1.42.44-2.24s.22-1.71.34-2.59a22.65,22.65,0,0,0,.14-2.55,15.52,15.52,0,0,0,0-2.11,32.78,32.78,0,0,1-.55,8.91c.23-.44.47-1,.71-1.5.26-1.12.35-2.25.5-3.41a33.19,33.19,0,0,0,0-3.46c.07,1,0,2,0,3s-.15,2-.23,3c.24-.74.48-1.55.72-2.42s.34-1.79.5-2.77a51.84,51.84,0,0,0-.41-10.11,36.86,36.86,0,0,0-1.54-7c-2.3-6.65-5-12.41-6.75-17.86-1.9-5.62-3.51-11.82-5.85-18.4a82.11,82.11,0,0,0-4.3-10,50,50,0,0,0-6.6-9.87,44.5,44.5,0,0,0-9.18-8.1A66.87,66.87,0,0,0,244.7,66.78Z" transform="translate(-122.43 -47.47)"/>
  <path class="cls-1" d="M271.53,173.81c.37-.17.67-.47.93-.35.66.48-.36,1.54.25,2l.62-.19a19.48,19.48,0,0,1-.33,1.93l1.27,3c.22-.08.44-.13.55,0,.26.42.13,1.1.17,1.77l.15.27a1.56,1.56,0,0,0,.52,0,5.5,5.5,0,0,1-.05.84,42.21,42.21,0,0,1,3.8,11.52,9.64,9.64,0,0,1,1,3c0,1.37-.83,3-1.24,4.2,2.3.37,2.47,3.89,4.88,3.92-.3.88-.81,2.19-.21,2.46a6,6,0,0,1,4,5c-.07,1.06-1.39,2.21-1.13,2.68.39.74,1.74-.74,2.13,0,3.29-6.85,4.7-14.47,5.59-22.75-.36-1.48-.17-6.94-1.11-12.9a60.46,60.46,0,0,0-1.94-8.46c-.76-2.54-1.62-4.63-2.06-5.87l-.23-.42a16,16,0,0,0-5.41-7,22.44,22.44,0,0,0-3.59-1.35,11,11,0,0,1,.09,1.77c-.68-.83-1.4-1.66-2-1.65-2.35-.84-2.13.94-2.68,2.58-.08.86-1.33,1.1-1.27,2.18-.36-.45-.59-.63-1-1.06-.49.41,1.53,1,.47,1.47-.19-.58-.94-.69-1.32-1.1-.44.79,1.18,1.56.48,2.13-.31-.08-.28-1.91-1.09-1.19-.16.15.2.53.39.73a2.14,2.14,0,0,0-1.88-.4c-.47.2-.69.72-.58,1.6-.32-.33-.55-1.09-1-1.29h0c.17.19.35.63.52.79l-.61-.58-.16.46a1.39,1.39,0,0,0,.31.59l-.39-.37c-.11.36-.21.73-.29,1.07.05.92-.27,2.06-.07,2.28A42.12,42.12,0,0,1,271.53,173.81Z" transform="translate(-122.43 -47.47)"/>
  <path class="cls-1" d="M244.8,166.55c0-.2-.13-.4.09-.49.69-.19,1.24.49,1.93.3l.05-.33,1.65.48c1,0,2.09-.12,3.13-.22,0-.12,0-.23.06-.28a8.09,8.09,0,0,1,1.65.07l.27-.06a.44.44,0,0,0,.1-.25,5.55,5.55,0,0,1,.76.08c1.51-.32,3.06-.67,4.59-1s3.08-.68,4.69-.92a7.63,7.63,0,0,1,2.05-.52,10.9,10.9,0,0,1,3,.72c.08-.57.71-.85,1.34-1.1s1.24-.48,1.21-1.11c.65.27,1.59.74,1.79.49.57-.77,1.62-1.65,3.85-.8.84.4,1.58,1.67,1.94,1.74s.23-.25.1-.59-.21-.67.09-.6a18,18,0,0,0-8.74-4.72,44,44,0,0,0-8.59-1,28,28,0,0,1-3,.27c-1.42.08-3.11.14-4.88.18-3.52.08-7.19.07-8.69,0l-.28,0a16.36,16.36,0,0,0-5,.44c-.63.27-1.28.6-1.93.92a9.7,9.7,0,0,1,.82.57,3,3,0,0,0-1.57.15c-1.39.49-.61,1.07-.07,1.86.38.34-.14.87.46,1.22l-1.09,0c0,.33,1.35-.16,1,.37a5.87,5.87,0,0,0-1.32.06c.15.44,1.51.17,1.44.6-.24.1-1.23-.59-1.31-.05,0,.11.42.13.64.14-1.35.16-2.09.67-.87,1.27a7.88,7.88,0,0,0-1.48-.18h0c.22,0,.61.14.82.14l-.77,0,.13.23a2.09,2.09,0,0,0,.59.13l-.51,0a3.42,3.42,0,0,0,.43.51c.6.35,1.18.87,1.51.88C239.5,166.32,242.16,166.51,244.8,166.55Z" transform="translate(-122.43 -47.47)"/>
  <path class="cls-1" d="M257.57,169.83c.08-.18,0-.42.26-.43.73.08,1,.93,1.69,1l.18-.27c.43.37.86.77,1.29,1.19.95.45,1.88,1,2.82,1.46,0-.11.09-.21.21-.19a7,7,0,0,1,1.32,1.06l.25.13a.44.44,0,0,0,.24-.14c.22.2.4.38.57.56a34.88,34.88,0,0,1,8.27,6.28,9.75,9.75,0,0,1,1.84,1.65,17.09,17.09,0,0,1,1.58,3.39c.49-.32,1.14.1,1.78.5s1.24.79,1.68.3c.28.75.63,1.89,1,1.85,1-.15,2.28.07,3.46,2.08.39.81.28,2.22.55,2.48.42.4.41-1.27.83-.87A43.27,43.27,0,0,0,279,174a75.45,75.45,0,0,0-7.53-7.11,49.7,49.7,0,0,0-10-5.92l-.35-.11a16.38,16.38,0,0,0-6.59-1.43,22,22,0,0,0-2.66.53,10.39,10.39,0,0,1,1,.7,4.39,4.39,0,0,0-2-.08c-1.82.39-.81,1-.24,1.85.43.38-.23.84.44,1.27-.5-.09-.75-.08-1.26-.14-.08.31,1.57-.06,1.17.45-.46-.18-1,0-1.52,0,.16.44,1.71.27,1.59.72-.26,0-1.33-.7-1.46-.16,0,.1.46.15.71.17-1.53.06-2.3.62-1,1.22a8.12,8.12,0,0,0-1.57-.19h0c.24,0,.65.14.87.14l-.81,0c0,.08.09.15.14.23a2.29,2.29,0,0,0,.62.13l-.54,0c.14.17.29.35.45.51.63.34,1.18.9,1.5.93A36.65,36.65,0,0,1,257.57,169.83Z" transform="translate(-122.43 -47.47)"/>
  <path class="cls-1" d="M266.59,167.91c.12-.16.18-.37.33-.38.43.06.24.81.66.88l.22-.24a8,8,0,0,1,.39.94c.44.35.93.66,1.39,1,.07-.09.15-.17.22-.16s.38.43.58.7l.14.08a.84.84,0,0,0,.23-.12,2.32,2.32,0,0,1,.21.37,23.37,23.37,0,0,1,4.81,3.47,5.1,5.1,0,0,1,1.21.88,7,7,0,0,1,.6,2c1.07-.47,2.05.91,3.09.31.12.45.21,1.14.54,1.1a2.87,2.87,0,0,1,3,1.29c.21.52-.09,1.38.12,1.55s.6-.77.95-.5a19.28,19.28,0,0,0-1.19-6,39.13,39.13,0,0,0-2.61-5.47,17.7,17.7,0,0,1-1.48-1.78c-.7-.86-1.55-1.91-2.49-2.93a57.86,57.86,0,0,0-5-4.66l-.19-.11a11.28,11.28,0,0,0-1.74-1.12,6.59,6.59,0,0,0-1.85-.59c-.58,0-1.18.1-1.75.17a7.88,7.88,0,0,1,.31.78c-.43-.23-.86-.48-1.12-.36-1.15.07-.81.83-.79,1.69.11.41-.42.75-.2,1.24a5.51,5.51,0,0,0-.65-.31c-.15.28.88.18.48.59-.19-.23-.56-.15-.81-.27-.08.44.83.51.61.91-.16,0-.48-.84-.74-.37-.05.1.2.22.32.27-.85-.15-1.43.17-1,1-.23-.1-.48-.45-.75-.48h0c.12.07.29.26.4.31l-.41-.2v.25a.77.77,0,0,0,.27.24l-.27-.13c0,.2,0,.39.05.57.2.46.29,1.05.45,1.12C264.33,166.22,265.48,167,266.59,167.91Z" transform="translate(-122.43 -47.47)"/>
  <path class="cls-1" d="M271.15,184.35c.19-.06.34-.24.49-.07.38.57-.13,1.27.23,1.84l.33,0c0,.53,0,1.08-.06,1.65.29,1,.59,1.9.91,2.86.11-.05.21-.09.28,0a6.92,6.92,0,0,1,.26,1.57l.11.25a.54.54,0,0,0,.27.05,5,5,0,0,1,.06.74c1.2,2.79,2.41,5.71,3.64,8.94a11,11,0,0,1,1,2,21.75,21.75,0,0,1,.35,3.3c1.12-.31,2,2,3.11,1.36.07.66.17,1.65.5,1.65a3.25,3.25,0,0,1,3,2c.23.66,0,1.77.2,2s.56-1,.92-.65c-.38-5.13-1.48-9.9-2.24-15.08-.39-.84-1.07-4.23-1.87-7.83s-1.79-7.4-2.16-9l-.1-.27a14.88,14.88,0,0,0-2.18-5c-.5-.54-1.06-1.06-1.62-1.56-.05.36-.12.7-.19,1-.24-.65-.48-1.29-.78-1.45-1-1.15-1.23-.15-1.73.66-.16.5-.86.22-.94.92-.16-.41-.24-.61-.39-1-.32.08.68,1.17.07,1.1-.05-.44-.42-.79-.58-1.19-.34.31.45,1.44,0,1.55-.18-.17.06-1.35-.47-1.21-.11,0,.05.43.13.63-.69-1.15-1.46-1.58-1.51-.25a6.83,6.83,0,0,0-.44-1.37h0c.08.21.14.6.21.78l-.28-.68a1.37,1.37,0,0,0-.15.21,1.48,1.48,0,0,0,.12.56l-.19-.45a4.6,4.6,0,0,0-.29.59,7.11,7.11,0,0,0-.21,1.67C269.78,179.57,270.47,182,271.15,184.35Z" transform="translate(-122.43 -47.47)"/>
  <path class="cls-1" d="M298.63,165.6c-.19-.08-.44,0-.42-.28.16-.82,1.05-1.1,1.26-1.88l-.25-.21c.42-.48.92-.95,1.41-1.44.62-1.07,1.29-2.13,2-3.19-.11,0-.21-.11-.17-.23a9.87,9.87,0,0,1,1.36-1.54l.19-.29a.44.44,0,0,0-.11-.27c.24-.25.48-.47.7-.66,1.07-1.64,2.25-3.29,3.53-5a62.15,62.15,0,0,1,4.11-5,12.56,12.56,0,0,1,1.81-2.19,16.57,16.57,0,0,1,3.76-2c-.34-.49.14-1.19.64-1.85s1-1.28.47-1.73c.89-.32,2.29-.62,2.29-1a2.42,2.42,0,0,1,.59-1.64,5.1,5.1,0,0,1,2.8-1.55c1.18-.22,2.95.34,3.38.19.28-.13,0-.34-.39-.54s-.76-.4-.4-.53a20.23,20.23,0,0,0-6.7.37,26.29,26.29,0,0,0-5.89,2.17,48.92,48.92,0,0,0-9.51,6.63c-.85,1.07-4.28,4.28-7.69,8.22a58.22,58.22,0,0,0-4.64,6.1,51.26,51.26,0,0,0-2.77,4.83l-.17.4a18.24,18.24,0,0,0-1.88,7.71,19.58,19.58,0,0,0,.57,3.13,9,9,0,0,1,.67-1.21,5.25,5.25,0,0,0,0,2.39c.53,2.12,1.08.84,1.85.11.36-.53.87.18,1.23-.62,0,.58,0,.87,0,1.45.3.06-.18-1.79.36-1.37a6.73,6.73,0,0,0,.07,1.73c.22-.11.25-.6.28-1s.1-.86.31-.81c.08.29-.6,1.57,0,1.66.11,0,.11-.54.11-.81.2,1.71.86,2.49,1.31,1a6.76,6.76,0,0,0,0,1.74h0c0-.27,0-.73,0-1l.09.89.2-.19a2.59,2.59,0,0,0,0-.68l.06.58a6.23,6.23,0,0,0,.44-.55,12.76,12.76,0,0,0,.77-1.7A25.47,25.47,0,0,1,298.63,165.6Z" transform="translate(-122.43 -47.47)"/>
  <path class="cls-1" d="M275.71,145.39c-.14.15-.11.45-.44.28-1-.6-1.21-1.72-2.19-2.3l-.27.2-1.76-2.08c-1.34-1-2.68-2-4-2.93,0,.12-.09.22-.25.15a19.5,19.5,0,0,1-2-1.65l-.38-.22a.38.38,0,0,0-.28.1c-.34-.28-.63-.55-.9-.8a121.19,121.19,0,0,0-13.68-7c-1.14-.32-2.27-.63-3.31-1-1.48-.66-3.28-1.72-4.75-2.35-.21,1.09-4,.37-3.6,1.73-.94-.31-2.37-.78-2.53-.46a3,3,0,0,1-1.21,1.26,4.52,4.52,0,0,1-1.12.43,7.74,7.74,0,0,1-1.57.29,25.24,25.24,0,0,0-2.67-.35c-.53.28,1.16.79.62,1.06a45,45,0,0,1,19.32,7.52c1.22.45,5.45,3.2,9.8,6.51a119.33,119.33,0,0,1,10.33,8.45l.32.26a68.28,68.28,0,0,0,5.59,4.88l2.53,1.55c-.12-.46-.25-.89-.33-1.29a7.45,7.45,0,0,0,1.58,1.72c1.63,1.37,1.42.1,1.54-1.05-.1-.68.83-.35.51-1.32.41.55.63.83,1,1.4.32-.14-1.43-1.6-.71-1.54.32.6.93,1.08,1.32,1.66.23-.46-1.32-2.05-.92-2.22.33.24.73,1.93,1.24,1.73.1,0-.29-.63-.5-.92,1.42,1.65,2.54,2.41,1.86.39.42.58.76,1.56,1.24,2.14h0c-.19-.33-.46-.93-.65-1.23l.69,1.09a2.38,2.38,0,0,0,.07-.31,5.65,5.65,0,0,0-.44-.89l.46.73a5.17,5.17,0,0,0,0-.89,10.93,10.93,0,0,0-.78-2.63A55.74,55.74,0,0,0,275.71,145.39Z" transform="translate(-122.43 -47.47)"/>
</svg>
