<svg id="Шар_1" data-name="Шар 1" xmlns="http://www.w3.org/2000/svg" viewBox="0 0 523.2 323.65">
  <defs>
    <style>
      .cls-1 {
        fill: #211a1e;
      }
    </style>
  </defs>
  <path class="cls-1" d="M603.7,273.46c-.39-.09-.91,1.94-.92-1.25.22-10,2.41-17.84,3.79-27.57l-.52-.82a207.2,207.2,0,0,1,6.69-22.8A210.77,210.77,0,0,1,620.39,200a215.56,215.56,0,0,1,9.71-20.14c-.4.22-.69.27,0-1.06A168.18,168.18,0,0,1,643,158.86c.75-1.09,1.44-2.22,2.22-3.26a2.43,2.43,0,0,0,.47-1.45l1.81-2.33c.28-.34.3-.36.42-.49s.41-.41.6-.57a1.81,1.81,0,0,1,.2-.33l.27.13.62.3.33.17.2.11.14.09.35.27,3.32,2.48c2.25,1.61,4.34,3.41,6.51,5.14s4.24,3.58,6.34,5.4A196.92,196.92,0,0,1,690,188.85a162,162,0,0,1,18.58,29,133.48,133.48,0,0,1,11.3,33.63,120.78,120.78,0,0,1,2.72,30.45,144.47,144.47,0,0,1-3.4,24.06,213.93,213.93,0,0,1-6.66,23.16c1.46-.7-.37,7.5-2.56,15.05-.54,1.89-1.08,3.74-1.57,5.41s-.91,3.14-1.16,4.3c-.53,2.33-.44,3.37.83,2-1,2.26-2.26,4.77-3.47,7.29s-2.47,5.05-3.62,7.29c-2.24,4.53-4,8-3.9,8.51.32,1.49,0,4.17-1.83,9.44s-5.44,13.1-11.9,24.6c-5.21,8.93-14.43,21.72-16,25-2.54,5.13,8.34-10.42,5.8-5.3,10.43-15.95,20.67-32.05,29.92-48.87s17.43-34.39,23.45-53a190.49,190.49,0,0,0,9.73-58.38,142.49,142.49,0,0,0-3.14-30.22l-.84-3.74c-.28-1.25-.54-2.5-.93-3.72-.71-2.45-1.4-4.92-2.15-7.36l-2.57-7.23c-.91-2.38-2-4.71-2.93-7.08-.69-1.6-1.82-3.67-3.14-6.27-.68-1.28-1.34-2.73-2.21-4.21s-1.77-3.08-2.75-4.78a194.81,194.81,0,0,0-16.21-23.37,224.39,224.39,0,0,0-24.89-26c-2.42-2.11-4.92-4.21-7.43-6.35l-3.9-3.07-2-1.55c-.93-.76-2.25-1.73-3.46-2.6l-7.35-5.38-3.68-2.69-.93-.68c-.17-.22-.27,0-.4.17l-.36.45-1.45,1.78-5.83,7.14-2.91,3.57-2.09,2.76c-4.21,5.41-8.07,11.13-11.83,16.88s-7.15,11.69-10.23,17.68-5.93,12-8.5,17.91c-1.22,3-2.43,6-3.53,8.88l-1.58,4.39-.78,2.16c-.24.73-.47,1.45-.7,2.17a233.27,233.27,0,0,0-10.89,55l-.24,4.23c-.39,6.34-.57,13-.56,19.73,0,3.38.07,6.79.18,10.21l.24,5.13.12,2.55c.07.85.14,1.7.2,2.55a192.78,192.78,0,0,0,6.16,37.16,155.56,155.56,0,0,0,11.31,28.14c-.44-1.09-.77-2.2-1.1-3.29s-.66-2.13-1-3.16l-.9-3c-.23-1-.45-1.93-.67-2.85.75,2.44,1.73,4.8,2.64,7.08l1.35,3.34c.47,1.07,1,2.08,1.45,3.06,1,1.95,1.8,3.72,2.6,5.19s1.6,2.61,2.18,3.42l2,3.13c.59.93,1.23,1.69,1.75,2.39,1,1.38,1.86,2.37,2.46,3,1.19,1.33,1.55,1.36,1.42.6a27.07,27.07,0,0,0-1.54-4.12l-1.25-2.89c-.37-1-.73-2.07-1.06-3.05-1.13-2.73-.49-2.48-.06-2.61.21-.06.38-.21.25-.86a36.27,36.27,0,0,0-1.37-3.88,118.51,118.51,0,0,0,8.12,14c.24.06-.34-.94-1.3-2.43l-1.65-2.52c-.6-.92-1.14-2-1.71-2.93-1.1-2-2.19-3.83-2.71-5s-.57-1.67.15-.78a18.2,18.2,0,0,0,1,2.13l1.16,2.12c.81,1.41,1.6,2.87,2.5,4.27l2.81,4.11,1.38,2c.47.67,1,1.3,1.47,1.94-.16-.57-1.11-1.94-2.18-3.84l-1.87-3c-.67-1.07-1.39-2.16-2-3.32-1.22-2.27-2.41-4.45-3.17-6s-1-2.66-.73-2.53c.44.74,1,2.22,1.85,3.86s1.81,3.63,2.75,5.52c2.1,3.65,4.23,7,5,7.19a17.78,17.78,0,0,0-1.69-2.94c-.52-.83-1.11-1.74-1.67-2.62s-1.11-1.71-1.48-2.42c.59,1.08,1.33,2,2,3l1.9,2.74a47.73,47.73,0,0,0,3.58,4.6c1.12,1.33,2.11,2.48,3,3.43s1.67,1.56,2.24,2c1.13.93,1.5,1,.91-.09a26.75,26.75,0,0,0-1.61-2.43c-.78-1.1-1.67-2.63-2.9-4.44a97.55,97.55,0,0,0,14,15.73l0-.05c-2.26-2.28-6.21-6.14-8-8.47a105.81,105.81,0,0,0,7.64,7.78c-.31-.51-.67-1.07-1.06-1.65-1.84-2-3.83-3.84-5.62-6l1.19,1.35.59.68.65.62,2.59,2.51c-.52-.75-1.1-1.54-1.71-2.37q-.48-.61-1-1.26l-.92-1.4c-1.27-1.7-2.52-3.38-3.72-5l-3.07-4.93c-.46-.78-1-1.49-1.37-2.24L625.37,387c-.74-1.33-1.42-2.5-2-3.44-9.35-15.78-14.78-33.94-17.57-52.66a242.84,242.84,0,0,1-2.4-28.52C603.1,292.78,603.18,283,603.7,273.46Z" transform="translate(-385.84 -125.98)"/>
  <path class="cls-1" d="M803,229c.08-.39-1-.93.77-.91,1,0,1.88.15,2.77.27l.17,0a.15.15,0,0,1,.08,0,.32.32,0,0,1,.12.11.67.67,0,0,1,.1.58c-.05.17-.1.24,0,.31a4.63,4.63,0,0,1,.65-.1,15.77,15.77,0,0,0-.06,2.43c0,1.1,0,2.21-.07,3.33-.11,2.24-.18,4.51-.42,6.8A148.39,148.39,0,0,1,804.89,267c.28-.17.51-.23.44.61-.25,1.74-.79,3.76-1.33,6-.3,1.1-.67,2.23-1,3.4s-.68,2.37-1.11,3.55c-.19.72-.39,1.44-.58,2.14a1.2,1.2,0,0,0,.24.94L801,285.2c-.2.5-.4,1-.58,1.47l-1.12,2.73a147.64,147.64,0,0,1-6.93,17.38,145.32,145.32,0,0,1-9.51,16.64,209.86,209.86,0,0,1-26.19,31.38c-4.07,4.52-8.28,9-12.6,12.95-6.5,5.79-15.4,12.58-22,17.84,1.23.49-2,4.2-5.06,7.62s-6,6.55-3.59,6.27c-2.33,1.68-5.31,3.7-7.75,5.34s-4.32,2.94-4.35,3.34c-.08,1.17-.77,2.86-3.2,5.28s-6.68,5.63-13.75,9.15c-5.63,2.64-14.55,4.93-16.35,6-2.9,1.72,7.71-1.32,4.82.39,5.26-1.81,10.59-3.74,15.93-6A128.08,128.08,0,0,0,704.44,415a222.47,222.47,0,0,0,27.5-19.78c4.26-3.48,8.37-6.94,12.54-10.42s8.35-7,12.53-10.66c8.34-7.26,16.67-14.86,24.62-23.26,2.28-2.74,7.84-8.88,14.33-17.86a158.67,158.67,0,0,0,19-34.51,166.25,166.25,0,0,0,6.71-21,157.32,157.32,0,0,0,3.68-21.22c.41-3.45.57-6.84.77-10.11,0-1.63.06-3.24.09-4.82s0-3.12,0-4.63-.06-3-.12-4.41-.19-2.82-.28-4.17c-.07-1-.13-2.21-.28-3.33a21.72,21.72,0,0,0-.63-3.23,15.13,15.13,0,0,0-2.7-5.36,15.44,15.44,0,0,0-7.29-4.87,25.53,25.53,0,0,0-3.81-.9c-1.24-.2-2.44-.32-2.9-.4l-2.5-.26a141.33,141.33,0,0,0-23.86-.74A122.61,122.61,0,0,0,760,212.26a148,148,0,0,0-16.63,5.66c2.71-.34,5.21-.61,7.39-.75-5.72,1.32-11.37,3-13.37,4.12-5.77,2.44-6.77,3.54-5.82,3.79a10.52,10.52,0,0,0,2.64,0c1.18,0,2.54-.12,3.78-.13,1.7-.22,1.55.29,1.63.73s.39.77,3,.36c-1.8.51-3.14.95-4.47,1.4s-2.7.85-4.45,1.53c0,.2.6,0,1.56-.33s2.27-.79,3.5-1.23l1.76-.61c.55-.16,1-.28,1.4-.36.74-.15,1-.09.48.35a37,37,0,0,0-5.35,1.74c-1.82.65-3.58,1.47-5.33,2.12.77.19,3.78-.95,6.66-1.79s5.53-1.58,5.37-1.1c-1.87.66-10.3,2.17-10.57,3.51a5.58,5.58,0,0,0,1.91-.51c1.07-.38,2.4-.79,3.28-1.09-5.35,2-9.28,4.06-10.64,5.14s-.2,1.13,4.75-.25l-5.71,2.14c-2,.79-4,1.7-5.7,2.56h0c1.73-.75,4.72-2,6.32-2.64-2,.81-3.87,1.77-5.82,2.65.37,0,.78,0,1.21-.07,1.5-.55,3-1.18,4.49-1.81-1.3.53-2.56,1.17-3.85,1.75,1.11-.13,2.34-.35,3.67-.61,4.87-1.37,9.64-2.12,12.17-3A154.56,154.56,0,0,1,803,229Z" transform="translate(-385.84 -125.98)"/>
  <path class="cls-1" d="M531.61,199c-.12.39,1,1-.91.84-6-.74-10.64-2.78-16.67-3.11l-.51.59L512,197l-.43-.07-.71-.1-1.44-.21c-1.91-.26-3.84-.51-5.81-.75l-6-.76-3.1-.38c-1.05-.13-2.11-.26-3.07-.35-.1,1.08-.21,2.26-.31,3.43-.14,2.38-.24,4.84-.4,7.16a24.1,24.1,0,0,1-.36,3.4L490,210c-.05.27-.09.54-.16.8l0,.2-.07.27,0,.16c-.43,1.75-1,3.59-1.65,5.54-1.28,3.9-3,8.2-4.19,13.08.3-.19.54-.24.36.72a110.61,110.61,0,0,0-2.88,15.26l-.06,2.57a1.26,1.26,0,0,0,.46.95c-.11,1.3-.1,2.53-.16,3.7s-.07,2.28-.06,3.35a103.77,103.77,0,0,0,11.67,40.1,141.53,141.53,0,0,0,25.37,34c4.52,4.15,9.21,8,13.64,11.79,6.44,5.7,14.71,13,21.74,17.8,0-.66,1.21-.51,2.86,0,.83.26,1.78.61,2.79,1l3.16,1.12A29.26,29.26,0,0,0,568.3,364c1.36.19,2,0,1.42-1,4.75,2.58,12.26,5.69,12.89,5.08a5.3,5.3,0,0,1,2-.91,9.76,9.76,0,0,1,1.54-.27l2-.16c.76,0,1.6,0,2.53,0s2,.1,3.11.09,2.4.1,3.77.17,2.87,0,4.49.08c1.26,0,2.69.07,4.14.19a20.29,20.29,0,0,0,2.2.07l2.14,0a27.47,27.47,0,0,0,3.71-.18,11.72,11.72,0,0,0,2.28-.36c.76-.28.67-.43.15-.52s-1.29-.2-2.12-.27c-1.63-.17-3.21-.33-1.9-.8a70.77,70.77,0,0,1-6.73.08l-3.37-.21-3.38-.47a71.64,71.64,0,0,1-13.35-3.39l-1.65-.57c-.55-.19-1.09-.44-1.64-.65l-3.26-1.34c-2.14-1-4.31-1.94-6.41-3.12a122.26,122.26,0,0,1-12.4-7.45c-4-2.72-7.94-5.75-11.78-8.86s-7.55-6.54-11.14-10a148.69,148.69,0,0,1-19.42-22.71,87.68,87.68,0,0,1-8.33-13,97.38,97.38,0,0,1-5-11.06,86.83,86.83,0,0,1-3.85-13.47,74.23,74.23,0,0,1,0-30.06c.14-.61.26-1.23.41-1.83l.49-1.8c.32-1.2.68-2.38,1.1-3.61.82-2.44,1.79-5,2.75-7.66.48-1.33.95-2.72,1.4-4.11.22-.72.44-1.43.65-2.13l.3-1.09.14-.49c0,.08,0,0,0,0a5.72,5.72,0,0,0,.16-1V215s0,0,.06,0l.15,0,.29,0,.56.07,5.14.65c4.34.57,7.93,1.2,10.61,1.73l2.17.36c3.22.66,6.59,1.39,10,2.24s6.77,1.81,10.05,2.84,6.45,2.19,9.4,3.32,5.7,2.33,8.15,3.46a96.33,96.33,0,0,1,13.5,6.79c-1.59-1.75-3.14-3.36-4.51-4.74,4.31,3,8.17,6.42,9.92,7.47,1.08.87,2,1.55,2.7,2.08a14.74,14.74,0,0,0,1.64,1.17c.83.47,1.13.37,1.1-.1a8.49,8.49,0,0,0-.85-2.31c-.48-1-1.13-2.1-1.66-3.17-1.92-2.69,2.07-.51-1.31-4.46,1.38,1.26,2.45,2.16,3.43,3.17l1.54,1.51c.53.55,1.08,1.16,1.72,1.84.38-.06-1.64-2.13-3.57-3.89s-3.7-3.29-2.37-2.84c2.59,2.53,5.73,5.12,8.21,8A6.2,6.2,0,0,0,593,238c-.41-.49-.88-1-1.38-1.6L590,234.76c-1-1.11-2.15-2.09-2.87-2.86s-1.13-1.26-.88-1.33a14.4,14.4,0,0,1,1.87,1.75c.79.79,1.64,1.77,2.47,2.72s1.64,1.85,2.31,2.52,1.22,1.09,1.54,1-2.3-2.9-3.71-4.2c4.36,4,7.47,7.42,8.91,8.57.73.57,1,.56.8-.18a11,11,0,0,0-.79-1.7c-.21-.38-.46-.81-.75-1.3s-.66-1-1.06-1.57c2.55,2.94,5.41,7.64,7.62,11.1v0c-.53-.87-1.21-2.09-1.9-3.29s-1.47-2.31-2-3.09l2,2.88,1.85,3c-.06-.39-.16-.82-.27-1.28a35.86,35.86,0,0,0-2.78-4.58c.88,1.29,1.81,2.55,2.61,3.9a27.16,27.16,0,0,0-1.41-3.9c-2.68-5-5.67-9.71-7.85-11.9a102.74,102.74,0,0,0-30-21.14A144.32,144.32,0,0,0,531.61,199Z" transform="translate(-385.84 -125.98)"/>
  <path class="cls-1" d="M870.4,338.61c.18-.37-.95-1.2,1.08-.67a64.81,64.81,0,0,1,8.55,3.41l1,.47.51.23,0,.05.06.16c0,.09.06.11.24.07l.72-.43a.69.69,0,0,1,.1.27,2.6,2.6,0,0,1-.45.37,1.81,1.81,0,0,1-.4.22c-.07,0-.1,0-.18.07l-.21.15,0,0a1.47,1.47,0,0,1-.09.18l-.44.8-.88,1.6-1.75,3.17c-1.19,2.1-2.37,4.19-3.58,6.23-2.41,4.11-4.89,8.1-7.51,11.92.33-.06.58,0,.11.78a60.49,60.49,0,0,1-4,5.37C861.61,375,859.82,377,858,379l-1.59,1.84a1.29,1.29,0,0,0-.24,1c-.88.89-1.66,1.77-2.5,2.51l-2.41,2.15-1.76,1.84c-.58.62-1.23,1.18-1.84,1.77-1.25,1.17-2.47,2.36-3.74,3.51-2.61,2.23-5.19,4.53-8,6.61-1.37,1.07-2.74,2.15-4.19,3.13s-2.85,2.05-4.31,3L823,409.25c-1.48,1-3.06,1.81-4.6,2.74a161.29,161.29,0,0,1-19.63,9.69,179.06,179.06,0,0,1-21.55,7.41,133.36,133.36,0,0,1-19,4.71c-1.17.16-2.38.36-3.63.48l-3.83.35c-2.59.26-5.28.34-8,.45-5.36.19-10.69.09-15.3,0,.69,1.19-4.62,1.92-9.61,2.53a61.52,61.52,0,0,0-6.42.91c-1.51.34-2.13.79-1,1.48-6.28-.54-15.63-1.81-16.2-1.28-.85.86-2.57,1.71-6.2,2.11a54.08,54.08,0,0,1-7,.18,106.26,106.26,0,0,1-10.6-1c-3.29-.52-7.35-1.63-10.89-2.59a68.76,68.76,0,0,0-7.7-2c-3.73-.31,8,3.47,4.26,3.16a302.73,302.73,0,0,0,36.2,7.47c6.08.91,12.2,1.53,18.33,2.05s12.29.74,18.47.74a230.88,230.88,0,0,0,37.12-2.71,204.62,204.62,0,0,0,36.79-9.2,243.77,243.77,0,0,0,26.19-12.25,186.61,186.61,0,0,0,19.41-12.52A163.53,163.53,0,0,0,868.09,395c1.51-1.64,3.09-3.22,4.55-4.92l4.33-5.13c2.8-3.48,5.4-7.06,7.82-10.62,4.84-7.14,9-14.25,12.64-20.78l4.19-7.62,4.56-8.4,2.19-4,.53-1,.14-.24c0-.07-.15-.08-.21-.12l-.52-.19-2.06-.76-7.89-2.91-12.31-4.52-5.89-2.21-2.46-.86c-7.32-2.72-15.41-5.65-23.35-8.37-4-1.37-8.07-2.67-12.06-3.72a87.78,87.78,0,0,0-11.54-2.3,66.44,66.44,0,0,0-20.46,1,55,55,0,0,1,8.58.74,57.54,57.54,0,0,0-9.64.53A28.91,28.91,0,0,0,802.9,310a29.25,29.25,0,0,0-6.41,2.67c-1,.66-1,1-.51,1.11,1,.21,4.41-.15,7.12,0,1.91-.08,1.67.42,1.71.86s.32.78,3.15.63c-2,.33-3.49.66-5,1s-3,.79-4.89,1.45c-.11.37,2.81-.73,5.56-1.44s5.26-1.06,4-.3a46.15,46.15,0,0,0-11.7,3.48c.81.13,4.06-1,7.18-1.75s6-1.1,5.79-.62a21.53,21.53,0,0,1-2.61.39c-1.13.18-2.48.33-3.75.61a24.45,24.45,0,0,0-3.44.91c-.92.36-1.54.72-1.63,1a6.24,6.24,0,0,0,2-.51c1.16-.35,2.57-.77,3.53-1-5.82,1.72-9.85,4.19-11.19,5.39-.68.61-.7.91.06.81a49.32,49.32,0,0,0,4.83-1.35C795,324.09,793,325,791,326a32.22,32.22,0,0,0-5.46,3.41h0a63.68,63.68,0,0,1,6.07-3.55,55.1,55.1,0,0,0-5.57,3.47c.37-.08.77-.18,1.19-.29,1.4-.82,2.84-1.58,4.32-2.4-.62.36-1.26.7-1.87,1.07l-1.82,1.15c1.1-.28,2.3-.68,3.62-1.05,4.72-1.93,9.52-2.55,12-3.23a50.52,50.52,0,0,1,15.73-1.63,69.14,69.14,0,0,1,16.2,3.12c5.55,1.68,11.24,3.85,17.18,6.05Z" transform="translate(-385.84 -125.98)"/>
  <path class="cls-1" d="M408,325.11c.12.39,1.61.17-.38,1.25l-.4.2-.71.33-1.41.65-2.78,1.24c-1.81.82-3.6,1.59-5.42,2.36l-11.07,4.61c2.1,3.63,4.42,7.5,7.14,11.57l1.21.71c1.29,2.19,2.6,4.39,3.91,6.62.74,1.29,1.48,2.61,2.23,3.93,1.4,2.47,2.85,5,4.35,7.5a242.59,242.59,0,0,0,20,25.86c0-.37.07-.62.86.15,3.11,3.33,7.29,8.13,12.13,12.7.73.66,1.52,1.26,2.26,1.87a1.59,1.59,0,0,0,1.15.33c2.2,2,4.26,3.71,6.14,5.31a171.55,171.55,0,0,0,43.21,22.3,233.18,233.18,0,0,0,48.73,11.28c7.24.64,14.46,1,21.38,1.42,10.22.84,23.25,2,33.22,2.34-.73-1.18,5-1.86,10.24-2.66s10.1-1.65,7.69-2.82c6.59.09,16.51.09,17-.57.75-1,2.41-2,6-3.06,1.77-.53,4-1,6.77-1.64s6-1.26,9.74-2.29a66.26,66.26,0,0,0,9.26-2.73,17.72,17.72,0,0,0,5.54-3.22c.67-.7.5-.78-.07-.56-.33.15-.59.21-1,.36l-1.12.48a17.09,17.09,0,0,1-2.06.63c-.49,0-.6-.06-.06-.53a43.31,43.31,0,0,1-14.57,4.17,150.86,150.86,0,0,1-17.57.87c-12.54.08-24.94.11-37.27-.22s-24.57-1-36.73-2.48c-6.09-.69-12.14-1.61-18.16-2.72-3-.53-6-1.19-9-1.83s-6-1.4-8.92-2.24a154.44,154.44,0,0,1-23.25-7.17,170.37,170.37,0,0,1-17.55-8,144.51,144.51,0,0,1-18.43-11.66,131.82,131.82,0,0,1-17-15.13c-2.66-2.75-5.15-5.67-7.59-8.56s-4.72-5.88-6.9-8.85c-4.39-5.92-8.34-11.8-11.86-17.25l-2.57-4-.5-.8-.16-.26-.53-.92c.51-.21.92-.37,1.23-.46l.14-.07c.1-.05-.09,0,.48-.23,7.46-3.19,15.77-6.58,23.85-9.71s15.92-6.07,22.36-8.51c5.86-2.4,11.85-4.83,17.89-7.07L471,319l9-2.44a62.1,62.1,0,0,0,6-1.88,61.44,61.44,0,0,0,6.38-2.33c1-.52,1.13-.84.62-1-1-.39-4.42-.31-7.23-.41-4,.28.91-2-5.19-1.22,4.29-1,6.43-1.59,10.76-2.54.33-.81-13.15,3.55-10.43,1.78,2.09-.4,4.28-1,6.47-1.58s4.43-1.19,6.58-1.68c-.84-.24-4.61.49-8.08,1.28s-6.68,1.51-6.46,1c1.13-.42,4.24-.86,7.11-1.39s5.57-1,5.86-1.67c.12-.24-4.22.69-6.38,1.23,3.3-.91,6.24-1.67,8.57-2.39a42,42,0,0,0,5.05-1.69c1.9-.86.58-1.16-5.68-.41,2.13-.45,4.73-.87,7.35-1.33s5.28-.87,7.52-1.39h0c-2.25.41-6.19.94-8.27,1.37,2.56-.52,5.14-1,7.7-1.48-.43-.07-.92-.13-1.43-.18-1.94.25-3.89.51-5.89.91l5.12-1c-1.35-.1-2.88-.14-4.56-.14-6.22.58-12.27.92-15.56,1.68A432.23,432.23,0,0,0,408,325.11Z" transform="translate(-385.84 -125.98)"/>
</svg>
