<svg id="Шар_2" data-name="Шар 2" xmlns="http://www.w3.org/2000/svg" viewBox="0 0 173.37 198.7">
  <defs>
    <style>
      .cls-1, .cls-2 {
        fill: #211a1e;
        stroke: #211a1e;
        stroke-miterlimit: 10;
      }

      .cls-2 {
        stroke-width: 0.25px;
      }
    </style>
  </defs>
  <path class="cls-1" d="M1080.25,92.28c0-.2-.24-.36,0-.51.64-.36,1.38.13,2-.24l0-.33,1.79,0c1-.36,2-.76,3-1.21-.06-.11-.11-.21,0-.28a9,9,0,0,1,1.63-.51l.25-.15a.5.5,0,0,0,0-.27c.28-.09.53-.15.76-.2a54.68,54.68,0,0,0,8.18-6.1c.49-.66,1-1.32,1.44-1.86.79-.72,2-1.46,2.74-2.2-.46-.34-.35-1.07-.34-1.74s0-1.31-.64-1.49c.41-.45,1-1.18.69-1.4a4,4,0,0,1-1.49-2.93c.06-.46.63-1,.49-1.21s-.34,0-.53,0-.4.16-.53,0a13.76,13.76,0,0,1-2.65,4,16.79,16.79,0,0,1-4.7,3.47,10.41,10.41,0,0,1-2.16,1.37,45.59,45.59,0,0,1-4.17,1.86,49.32,49.32,0,0,1-7.86,2.45l-.24.08a17.27,17.27,0,0,0-4.53,1.55c-.54.39-1.08.83-1.63,1.26.32.13.61.27.88.41a2.79,2.79,0,0,0-1.46.44c-1.24.72-.4,1.15.27,1.83.44.27,0,.89.68,1.12l-1.09.15c0,.33,1.3-.4,1.1.18a6,6,0,0,0-1.3.29c.22.41,1.52-.1,1.54.34-.22.15-1.33-.37-1.32.18,0,.11.44,0,.66,0-1.3.41-2,1-.64,1.41a8.66,8.66,0,0,0-1.52.08h0c.23,0,.64,0,.85,0l-.78.09.17.21a2.47,2.47,0,0,0,.61,0l-.52.06a3.13,3.13,0,0,0,.52.43,6.07,6.07,0,0,0,1.69.6A50.26,50.26,0,0,0,1080.25,92.28Z" transform="translate(-988.92 -32.46)"/>
  <path class="cls-1" d="M1076.07,95.75c0-.2-.12-.41.1-.5.66-.16,1.21.53,1.91.36l.05-.32,1.71.49a26.34,26.34,0,0,0,3.36-.37c0-.11-.06-.22,0-.28a16.25,16.25,0,0,1,1.84-.15l.3-.1a.42.42,0,0,0,.08-.27c.31,0,.6,0,.86-.06a22.55,22.55,0,0,0,4.79-2.61,24.16,24.16,0,0,0,3.85-3.69,15.29,15.29,0,0,1,1.17-1.86,31.42,31.42,0,0,1,2.52-2c-.86-.76.44-2.73-.7-3.27.47-.4,1.15-1,1-1.29a3.28,3.28,0,0,1-.4-3.45c.32-.54,1.26-1,1.25-1.25,0-.46-1,.13-1-.34L1094,79.39a38.79,38.79,0,0,1-4.9,4.07,8.85,8.85,0,0,1-4.9,2.39,27.16,27.16,0,0,1-7.38.23h-.26a14.91,14.91,0,0,0-4.91.29c-.64.25-1.31.6-2,.92a8.53,8.53,0,0,1,.83.56c-.66,0-1.32,0-1.57.19-1.4.55-.55,1.09,0,1.85.39.33-.09.88.49,1.21h-1c0,.32,1.26-.22,1,.32-.39-.1-.83.11-1.23.11.17.44,1.41.11,1.36.55-.21.11-1.16-.55-1.21,0,0,.11.4.11.6.11-1.24.2-1.8.82-.71,1.31a6.1,6.1,0,0,0-1.29-.07h0c.19,0,.54.09.72.08l-.67,0,.14.21a1.31,1.31,0,0,0,.51.09l-.43,0a4.45,4.45,0,0,0,.41.47c.53.3,1,.79,1.32.8C1071.09,95.29,1073.48,95.61,1076.07,95.75Z" transform="translate(-988.92 -32.46)"/>
  <path class="cls-1" d="M1089.89,96.74c-.09-.18-.3-.3-.17-.47.45-.45,1.19-.11,1.63-.57l-.12-.31c.47-.11,1-.19,1.5-.33a22.71,22.71,0,0,0,2.18-1.7c-.08-.08-.15-.17-.1-.26a6.65,6.65,0,0,1,1.22-.77l.15-.19a.45.45,0,0,0-.08-.26,5.12,5.12,0,0,1,.58-.34,47.53,47.53,0,0,0,4.65-7,9.28,9.28,0,0,1,.65-1.78,20.53,20.53,0,0,1,1.86-2c-1-.64-.22-2.5-1.39-2.9.34-.38.81-1,.57-1.22a3.27,3.27,0,0,1-1.2-3c.15-.49.91-.91.84-1.17s-.94.18-1.05-.22l-3.19,4.31a34.63,34.63,0,0,1-3.55,4.06,17,17,0,0,1-3.94,4,27.54,27.54,0,0,1-5.35,3.37l-.17.1a10.53,10.53,0,0,0-3.1,2c-.33.42-.64.91-1,1.38l.78.3c-.47.16-.93.33-1,.59-.83.81-.08,1.16.6,1.75.41.22.2.86.78,1-.33.12-.51.16-.85.27.08.32,1-.53.93.05-.36,0-.66.32-1,.42.26.38,1.23-.25,1.33.16-.15.18-1.16-.21-1,.33,0,.11.37,0,.54,0-1,.52-1.43,1.22-.24,1.44a6,6,0,0,0-1.25.25h0c.18,0,.53,0,.7-.1l-.63.19.18.18a1.43,1.43,0,0,0,.51,0l-.42.13a4.8,4.8,0,0,0,.52.36,5.4,5.4,0,0,0,1.54.39A31.21,31.21,0,0,0,1089.89,96.74Z" transform="translate(-988.92 -32.46)"/>
  <path class="cls-1" d="M1152.06,138.43c.2,0,.39-.28.5.11a3.14,3.14,0,0,1-.14,1.76,7.27,7.27,0,0,0-.4,1.5l.29.16a4.41,4.41,0,0,1-1.4,1.66,13.85,13.85,0,0,1-4.63,3.27c.11.09.18.18,0,.31a20.07,20.07,0,0,1-3.51,1.32l-.57.25a.4.4,0,0,0-.14.32c-.62.18-1.18.3-1.7.42a67.53,67.53,0,0,1-22.45,3.91,41.09,41.09,0,0,1-5.28.28c-2.53-.14-5.71-.79-8.16-1.19.21,1.21-5.88.86-4.86,2.19-1.64-.28-4.1-.7-4.27-.39-.52.92-2,1.81-6.35,1.8-1.7-.1-4.22-.8-4.83-.67-1,.21,2.09.94,1.12,1.14,12.31,1.76,24.68,4.24,38.39,4.39,1.16-.12,4-.23,7.73-.63a68.21,68.21,0,0,0,13-2.71,56.62,56.62,0,0,0,6.81-2.74,22.09,22.09,0,0,0,6.43-4.49,14.62,14.62,0,0,0,2.37-3.32,15.09,15.09,0,0,0,1.23-3.34,20.5,20.5,0,0,0,.54-4.92l-.07-.87a20.59,20.59,0,0,0-2.06-7.94,19.86,19.86,0,0,0-4.4-5.95,22.85,22.85,0,0,0-4.91-3.11,18.71,18.71,0,0,1,1.53,1.89,11.73,11.73,0,0,0-3.76-2.4c-1.89-.72-2.4-.54-2.28-.18s.8,1.06,1.23,1.73c.71.77-.68.57.41,1.65a8.76,8.76,0,0,0-1.15-.68c-.36-.17-.69-.4-1.19-.6-.12.11.64.42,1.31.75s1.21.73.76.74a5,5,0,0,0-1.38-.77c-.49-.24-1-.38-1.5-.58.09.27.91.62,1.62,1.06s1.32.88,1.15,1c-.46-.24-2.25-1.91-2.68-1.43,0,0,.18.16.46.29l.83.44a6.16,6.16,0,0,0-3.1-.71c-.5.1-.27.41.85,1.11-.41-.2-.92-.35-1.44-.58a7.8,7.8,0,0,0-1.54-.37h0c.46.14,1.25.34,1.66.5-.51-.18-1-.23-1.57-.37l.24.28c.38.16.76.24,1.15.37a8.85,8.85,0,0,0-1-.23,8.21,8.21,0,0,0,.75.66c1.08.67,1.91,1.53,2.45,1.85A15.59,15.59,0,0,1,1152.06,138.43Z" transform="translate(-988.92 -32.46)"/>
  <path class="cls-1" d="M999.66,167.64c.14.15.45.11.26.45a5.87,5.87,0,0,1-1.25,1.15,3.65,3.65,0,0,0-1.2,1.21l.2.27a29.34,29.34,0,0,0-2.08,2.09,26.85,26.85,0,0,0-2.42,5c.13,0,.24,0,.2.21-.21.73-.71,1.66-1.07,2.68l-.1.47a.38.38,0,0,0,.2.25c-.15.46-.31.87-.44,1.25a27.94,27.94,0,0,0,2.41,15.84c.64,1,1.38,2,2,2.88a41.49,41.49,0,0,0,2.76,4.49c.37-.45,1.27,0,2.12.24s1.66.43,1.82-.23a10.86,10.86,0,0,0,1.13,1c.39.27.72.43.85.32a3.39,3.39,0,0,1,1.52-.75,6.8,6.8,0,0,1,2.51.08,6.11,6.11,0,0,1,1.2.6c.4.19.74.37.9.32.31-.06,0-.33-.12-.57s-.35-.48-.1-.57a17.65,17.65,0,0,1-6.65-5,17,17,0,0,1-2.33-3.62,15.55,15.55,0,0,1-1.3-4.18,11,11,0,0,1-.58-3.42,20.16,20.16,0,0,1,.73-6,21.4,21.4,0,0,1,2.61-5.85,19.45,19.45,0,0,1,2.87-3.55l.23-.26c1.48-1.48,3.42-3.09,4.73-4.39.56-.67,1.15-1.37,1.79-2h-1.25a7,7,0,0,0,1.87-1.08c1.58-1.2.4-1.34-.65-1.74-.67-.09-.16-.88-1.15-.83.62-.25.93-.39,1.56-.62-.06-.35-1.84,1-1.63.29.66-.14,1.24-.64,1.89-.84-.39-.37-2.25.75-2.33.32.31-.26,2-.24,1.94-.77,0-.12-.68.12-1,.26,1.91-1,3-1.82.83-1.7.67-.25,1.69-.32,2.38-.61h0c-.36.09-1,.18-1.35.27l1.23-.35-.28-.15a5.64,5.64,0,0,0-1,.17l.83-.24a6.23,6.23,0,0,0-.86-.26,9.69,9.69,0,0,0-2.75.08A31,31,0,0,0,999.66,167.64Z" transform="translate(-988.92 -32.46)"/>
  <path class="cls-1" d="M1019.86,228.49c.08-.19-.6-.57.56-.37,3.6.68,6.35,1.67,9.8,1.77l.27-.31c2.61.34,5.24.64,8,.94,5,.17,10.06.18,15,.07-.13-.12-.19-.23.3-.28,2.07-.1,5,0,7.93-.08l1.31-.09a.72.72,0,0,0,.47-.27c1.34-.05,2.54-.07,3.65-.08a306.15,306.15,0,0,0,44.73-7.56c3.25-.94,6.51-1.94,9.64-2.9,2.33-.67,5-1.44,7.61-2.34a56.76,56.76,0,0,0,7.32-3.06c-.58-.34,1.64-2,3.48-3.67s3.46-3.35,2.21-3.19c1.27-.85,2.88-2,4.14-2.9s2-1.72,1.92-1.91a22,22,0,0,1,0-2.45,6.56,6.56,0,0,0-.42-1.76,6.49,6.49,0,0,0-1.56-2.42,11.66,11.66,0,0,0-2.86-2.29,10.39,10.39,0,0,0-2.95-1.22c-.45-.06-.44,0-.2.19s.61.38,1,.62c.76.46,1.39.95.7.81a7.52,7.52,0,0,1,4,3.27,3,3,0,0,1,.32,1.55,1.2,1.2,0,0,1-.1.38,2.3,2.3,0,0,1-.38.51,16.89,16.89,0,0,1-2.59,2.05l-3.55,2.48a62.34,62.34,0,0,1-7,4.23,71.94,71.94,0,0,1-15.6,5.41c-2.78.65-5.64,1.25-8.54,1.8s-5.8,1.06-8.74,1.53c-2,.44-6.84,1.31-13.27,2.13s-14.44,1.55-22.66,1.91-16.64.32-23.86,0c-3.6-.16-7-.34-9.72-.59a48.2,48.2,0,0,1-6.46-1l-1.12-.25a24.22,24.22,0,0,1-9.26-4.52,66.24,66.24,0,0,1-7.58-7.31,86.09,86.09,0,0,1-5.89-6.47c.53,1.22,1.1,2.35,1.59,3.35-1.77-2.43-3.16-4.95-3.8-5.85-.79-1.31-1.19-2.12-1.48-2.54s-.45-.45-.53-.21a10.6,10.6,0,0,0,.2,3.28c.49,1.79-1.11-.2-.06,2.54a26.57,26.57,0,0,1-2.14-4.84c-.1,0,0,.34.18.89s.51,1.27.85,1.93c.64,1.33,1.31,2.48.71,2a33.81,33.81,0,0,1-2.55-6,10.25,10.25,0,0,0,1.07,3.88c.67,1.61,1.47,3,1.19,3a19.21,19.21,0,0,1-1.44-3.24c-.49-1.36-.86-2.66-1.18-2.79a12.74,12.74,0,0,0,1,3.08,33.23,33.23,0,0,1-2.35-6.86c-.17-.53-.3-.64-.39-.17a10.32,10.32,0,0,0,.07,3.19,16.75,16.75,0,0,1-.41-4.06,22.36,22.36,0,0,1,.47-4.24v0a18.34,18.34,0,0,0-.55,4.65,17.51,17.51,0,0,1,.38-4.38c-.11.22-.24.46-.36.73a13,13,0,0,0-.35,3.37,17.47,17.47,0,0,1,.17-3c-.15.35-.25.75-.38,1.17a8.18,8.18,0,0,0-.29,1.36,20,20,0,0,0,1,8.73,44,44,0,0,0,5.2,9.16c1,1.38,2,2.66,3,3.94s2.06,2.58,3.19,3.85a43.55,43.55,0,0,0,7.85,7.13,29.7,29.7,0,0,0,4.9,2.76A34.52,34.52,0,0,0,1019.86,228.49Z" transform="translate(-988.92 -32.46)"/>
  <path class="cls-1" d="M995.64,196.51c-.09,0-.16.13-.23.09s0-.47-.14-.64l-.16,0c0-.19,0-.39,0-.6-.14-.3-.27-.62-.42-.95-.05,0-.1,0-.13,0a1.77,1.77,0,0,1-.08-.55l0-.09a.2.2,0,0,0-.13,0,1.17,1.17,0,0,1,0-.27,10.27,10.27,0,0,1-1-3.44,2.74,2.74,0,0,1-.17-.87,4.13,4.13,0,0,1,.48-1.19c-.58-.15-.42-1.18-1-1.26.12-.25.37-.65.26-.76a1.23,1.23,0,0,1-.41-.71,1.52,1.52,0,0,1,.59-1.38,2.54,2.54,0,0,1,1.25-.45,9.33,9.33,0,0,1,1.08,0c.05,0,.05-.07,0-.12s-.2-.12-.34-.18c-.31-.11-.67-.17-.37-.26a3.75,3.75,0,0,0-2.31.82,5.31,5.31,0,0,0-1.07,1.16c-.12.19-.24.38-.33.56l-.22.44c-.14.29-.26.59-.38.89a16,16,0,0,0-.86,3.76,30.85,30.85,0,0,0,.35,3.88,18.93,18.93,0,0,0,1.33,4.14l.07.12a4.89,4.89,0,0,0,1.48,1.91c.27.14.55.25.82.36l.05-.42c.14.22.27.43.41.46.48.3.58-.08.79-.48.06-.23.4-.19.41-.5l.23.41c.15-.07-.38-.45-.09-.48,0,.19.25.31.34.48.16-.18-.29-.62-.09-.71.1.06,0,.62.29.52.06,0,0-.2-.09-.29.39.47.79.71.76,0a6.86,6.86,0,0,0,.27.71h0c0-.11-.08-.32-.12-.41l.16.36.07-.11a.74.74,0,0,0-.08-.3l.12.24a1.75,1.75,0,0,0,.12-.32,2.63,2.63,0,0,0,0-.92c-.31-.61-.63-1.13-.89-1.57S995.84,196.9,995.64,196.51Z" transform="translate(-988.92 -32.46)"/>
  <path class="cls-1" d="M993.18,201.31c.1,0,.17-.11.25,0,.19.24,0,.57.14.81l.16,0c0,.23,0,.5,0,.74l.22.47,2.09-1.6a1.2,1.2,0,0,1,0-.28,4,4,0,0,1,.43-1s0,.07.05-.11l.1-.17h0l0,0-.2-.18-.08,0a.38.38,0,0,0-.09.09.55.55,0,0,1-.13-.14l-.87-.2a1.2,1.2,0,0,1-.6-.38l-2.16.45.2.14a3.34,3.34,0,0,1,.73.38,5.45,5.45,0,0,1,.61,1c.44-.38,1.16.14,1.53-.34.13.19.31.48.46.4a1.57,1.57,0,0,1,1.58-.1c.19.15.24.57.37.58s.1-.45.3-.43a37.37,37.37,0,0,0-2.73-3.78l-3.41-4.56L991,198.4a4.56,4.56,0,0,0-.06,1.42,5.82,5.82,0,0,0,1.53,2.72,7.68,7.68,0,0,0,1.39,1.09l.32.2c.12.07.28.17.5.28a3.56,3.56,0,0,0,.89.29,2.87,2.87,0,0,0,1.38-.08l2.21-.72-.86-2.37c-.2-.53-.36-1-.42-1.23l0-.07-.06-.17-1.24.35-.19,0-.26,0a1.06,1.06,0,0,1-.3,0c-.12,0,0-.1,0,.12a1.56,1.56,0,0,1,0,.27v.3l0,.84,0,.53h.06s.07,0,.09,0h0s0,0,0-.08.06-.29.09-.42a2.83,2.83,0,0,1,.32-.81c.07-.1.13-.13.06-.09a1.77,1.77,0,0,1-.31.13l-.29.07-.24.06h0l.18,0L996,201l.31-.12a2.51,2.51,0,0,1-.43.15c-.11,0,0,0-.05,0a.41.41,0,0,0,.1.14c.32.55.56.15.93-.08.15-.15.44,0,.59-.23l0,.38c.16,0-.14-.45.14-.38,0,.17.07.32.08.42s.11-.12.12-.25,0-.26.12-.26-.25.48,0,.43c.05,0,0-.1,0-.18.12.35.44.33.65.08,0,.06-.06.19,0,.21h0s0-.09,0-.12a.22.22,0,0,0,.07.09l.08-.05a.12.12,0,0,0,0-.08.1.1,0,0,0,0,0l.2-.12a.65.65,0,0,1,.25-.12c.09,0,.15,0,.15-.06a3,3,0,0,0-.31-1.53,3.22,3.22,0,0,0-1-1.16,3.64,3.64,0,0,0-1-.52,4.88,4.88,0,0,0-.74-.18l-.28,0c-.09,0-.09,0-.47,0a2.57,2.57,0,0,0-.78.13,2.74,2.74,0,0,0-1.79,1.87,2.68,2.68,0,0,0-.09.87,3,3,0,0,0,.12.76Z" transform="translate(-988.92 -32.46)"/>
  <path class="cls-1" d="M1001.54,165.76c.06.08.25,0,.08.26-.57.63-1.3.86-1.85,1.53l.07.16c-.52.41-1.06.85-1.61,1.31a34.22,34.22,0,0,0-2.44,3.07c.07,0,.12,0,.06.14-.3.46-.78,1-1.24,1.66l-.16.3a.21.21,0,0,0,0,.18l-.55.78a30.75,30.75,0,0,0-3.35,11.27c0,.89,0,1.76,0,2.59,0,.61-.07,1.32,0,2.07a7.11,7.11,0,0,0,.43,2.1c.23-.19.69.39,1.16.83s.93.85,1.05.47c.34.7.9,1.65,1.07,1.59a1.76,1.76,0,0,1,1,0,12.27,12.27,0,0,0,1.37.36c.4.12.72.26.74.15s.07-.11,0-.13-.07-.07-.1-.11a.36.36,0,0,1-.06-.24,1.49,1.49,0,0,1-.52-.23,2.87,2.87,0,0,1-.78-.83,17.15,17.15,0,0,1-.93-1.61,14.08,14.08,0,0,1-.8-1.66,3.75,3.75,0,0,1-.26-1.33,18.5,18.5,0,0,1,.09-1.88,22.08,22.08,0,0,1,.78-4,23.54,23.54,0,0,1,3.34-7.71,33.72,33.72,0,0,1,6.36-7.28l.22-.21c1.39-1.22,3.15-2.63,4.31-3.74l1.56-1.65c-.34.12-.66.22-.94.3a8.51,8.51,0,0,0,1.46-1.08c1.23-1.09.3-.84-.45-.82-.47.11-.1-.45-.8-.2l1.1-.69c0-.18-1.29.94-1.14.52.46-.22.87-.62,1.31-.88-.27-.1-1.55.91-1.61.68.21-.19,1.39-.55,1.33-.83,0-.06-.46.22-.68.36,1.3-.95,1.92-1.63.52-1.1.43-.27,1.11-.55,1.55-.87h0c-.23.14-.66.33-.87.46l.79-.47h-.2a5.12,5.12,0,0,0-.62.31l.52-.31a3.09,3.09,0,0,0-.58.06,11.47,11.47,0,0,0-1.78.61A53,53,0,0,0,1001.54,165.76Z" transform="translate(-988.92 -32.46)"/>
  <path class="cls-1" d="M1125.14,218.09c0-.1-.22-.15,0-.27.82-.32,1.6-.17,2.42-.53v-.18c.67-.12,1.38-.26,2.09-.43,1.26-.46,2.48-1,3.68-1.55-.05,0-.09-.09,0-.16.49-.25,1.2-.53,1.93-.84l.3-.18a.23.23,0,0,0,.06-.17l.88-.39a48.2,48.2,0,0,0,4.85-3.42,13.89,13.89,0,0,0,2.29-2.36,14.48,14.48,0,0,0,1.61-2.88c.3-.86.54-1.7.87-2.47.51-1.13,1.32-2.48,1.89-3.54-.3-.05-.18-.76-.07-1.43s.09-1.12-.33-.94a5.72,5.72,0,0,0,.43-.9c.08-.31-.19-.49-.3-.44l-1.19.33-.56.16-.23.07,0,0h0l-.09,0-.37-.07c-.81-.21-2-.83-2.27-.83-.48,0,.91.68.42.68l2.12.79h0s0,0,0,0h0l-.1.2-.52,1c-.68,1.37-1.36,2.73-2.05,4.1a17.37,17.37,0,0,1-2,3.48,7.32,7.32,0,0,1-2.06,1.95,42.8,42.8,0,0,1-4.88,2.85,45,45,0,0,1-9.55,3.56l-.3.09c-1.87.46-4.15.94-5.74,1.37-.73.25-1.47.5-2.21.73.36.05.7.12,1,.18a9.54,9.54,0,0,0-1.85.26c-1.65.36-.7.58,0,.93.48.13-.13.44.62.56l-1.34.08c0,.16,1.65-.2,1.3.09-.53,0-1.1.12-1.64.14.2.21,1.88,0,1.81.18-.29.08-1.54-.19-1.63.09a2.7,2.7,0,0,0,.8,0c-1.66.21-2.59.46-1,.71-.54,0-1.3-.07-1.87,0h0c.28,0,.77,0,1,0l-1,0,.17.11c.24,0,.48,0,.73,0h-.64a4.32,4.32,0,0,0,.56.23,10.14,10.14,0,0,0,1.94.34A47.52,47.52,0,0,0,1125.14,218.09Z" transform="translate(-988.92 -32.46)"/>
  <path class="cls-2" d="M1010.66,161.7" transform="translate(-988.92 -32.46)"/>
  <path class="cls-1" d="M1020.78,159.25c0-.09-.23-.11,0-.26.71-.44,1.45-.39,2.17-.81V158c.62-.19,1.26-.36,1.92-.54,1.14-.48,2.28-.94,3.43-1.38,0,0-.08-.09,0-.15a14.92,14.92,0,0,1,1.86-.54l.31-.12a.19.19,0,0,0,.07-.16c.32-.09.61-.14.88-.2a64.35,64.35,0,0,1,11-3,19.51,19.51,0,0,1,2.51-.55,38,38,0,0,1,4,0c-.19-.58,2.76-.83,2.19-1.41a6.62,6.62,0,0,0,2.1,0c.21-.47.87-1,3.08-1.15.86,0,2.15.34,2.46.27.49-.11-1.07-.46-.58-.56a75.32,75.32,0,0,0-19,.15c-1.08.26-5.32.93-9.63,2.2a91.55,91.55,0,0,0-10.35,3.86l-.31.15a36.65,36.65,0,0,0-5.53,3c-.64.49-1.27,1-1.9,1.53l1-.23a8.81,8.81,0,0,0-1.67,1c-1.39,1-.4.82.37.85.5-.07.06.46.8.26l-1.19.63c0,.17,1.41-.87,1.21-.45-.48.19-.94.55-1.42.8.27.11,1.68-.81,1.71-.58-.23.18-1.47.46-1.43.74,0,.06.48-.19.72-.31-1.41.86-2.08,1.53-.62,1.06-.46.25-1.16.5-1.63.8h0c.25-.12.69-.3.92-.42l-.83.44.2,0a4.17,4.17,0,0,0,.65-.29l-.55.29a3,3,0,0,0,.59,0,14.78,14.78,0,0,0,1.84-.5C1015,162,1017.9,160.57,1020.78,159.25Z" transform="translate(-988.92 -32.46)"/>
  <path class="cls-1" d="M1118,42.18c-.29.32.66,1.28-1.34.43-1.57-.67-3.11-1.23-4.64-1.74l-2.22-.74-1.17-.49a20.12,20.12,0,0,0-5-1.62l-.43.56c-2.77-1-5.69-2.09-8.75-3.09A126.52,126.52,0,0,0,1076.56,33c.14.26.19.48-.42.51-2.52-.06-6.05-.52-9.78-.55-.55.05-1.09.08-1.63.14a.92.92,0,0,0-.59.54c-1.67,0-3.17.07-4.56.12a63.44,63.44,0,0,0-26.22,10.13,42.63,42.63,0,0,0-5.8,4.89,41.12,41.12,0,0,0-4.8,5.92,33.61,33.61,0,0,0-3.53,7,24.71,24.71,0,0,0-1.56,8l0,.89.1.9c.09.59.15,1.18.26,1.76a23,23,0,0,0,1,3.37,22.65,22.65,0,0,0,3.2,5.88,26.52,26.52,0,0,0,7.37,7,29,29,0,0,0,9,3.78c-.1-.6.72-1,1.89-1.2s2.73-.53,4.17-.9a11.82,11.82,0,0,0,3.52-1.41c.77-.52,1-1,.34-1.59a29.5,29.5,0,0,0,5.35-.91c1.65-.45,2.89-1,2.92-1.34a6.44,6.44,0,0,1,1.94-3.78,35,35,0,0,1,7.54-5.69A49.71,49.71,0,0,1,1072,74.1a24,24,0,0,0,4.25-1.79c1.73-1.42-5.16.69-3.43-.72-6.65,2.69-12.46,5.46-17.82,7.09-1.34.43-2.63.74-3.9,1-.63.12-1.26.25-1.88.34s-1.27.2-1.77.21a19.67,19.67,0,0,1-6.52-.49,15.4,15.4,0,0,1-5.43-2.37L1035,77l-.43-.41a8.27,8.27,0,0,1-.78-.79,6.71,6.71,0,0,1-1-1.69,7.48,7.48,0,0,1-.49-1.9,8.4,8.4,0,0,1,.19-2.22,13.76,13.76,0,0,1,2.57-5.38,20.39,20.39,0,0,1,8-7.58,40.81,40.81,0,0,1,9.36-3.83,55.19,55.19,0,0,1,11.77-1.86c8.32-.48,17.23.82,25,2.52,3.88.85,7.48,1.76,10.61,2.6l4.3,1.19.94.26c.21.06.16.06.19.07l.06,0,.18.09.19,0a1.13,1.13,0,0,1,.59.57,1.6,1.6,0,0,1,0,.87,4.81,4.81,0,0,1-.12.48v0s0,0,0,0l-.07.12-.31.48c-.28.42-.56.82-.84,1.22-1.12,1.62-2.21,3.15-3.21,4.53-1.71,2.63-3.55,5.32-5.6,7.88l3.82-1.88c-2.45,2.24-5.07,4.26-5.84,5.36-2.53,2.53-2.93,3.37-2.18,3.62s2.54-.21,4.15-.45c2-.73.47,1.85,3.5.36-1.89,1.46-2.85,2.18-4.83,3.52.08.35,1.54-.78,2.85-1.81s2.49-2,2.17-1c-2,1.24-3.81,3.1-5.83,4.42.6.14,2.38-1,4-2.08s3-2.18,3.18-1.73a19.88,19.88,0,0,1-3.38,2.14c-1.38.81-2.67,1.57-2.55,2.17,0,.23,2.08-1.13,3.06-1.87a51.81,51.81,0,0,0-6,5.21c-.73,1,.15,1.13,3.44-.31-2.06,1.35-5.27,2.74-7.48,4.08h0c.57-.3,1.38-.66,2.17-1s1.55-.77,2.07-1.07c-1.27.74-2.56,1.46-3.87,2.14a8.63,8.63,0,0,0,.9,0,24.26,24.26,0,0,0,3-1.46c-.86.48-1.7,1-2.58,1.45a18.1,18.1,0,0,0,2.7-.39c3.41-1.2,6.84-2.33,8.44-3.48a90.67,90.67,0,0,0,17.7-15.87c.65-.77,1.25-1.5,1.93-2.34l.56-.73.69-1c.5-.75,1-1.48,1.4-2.23a29.31,29.31,0,0,0,2.18-4.7,22.42,22.42,0,0,0,1.08-4.9,18.61,18.61,0,0,0-.21-4.89,16.31,16.31,0,0,0-1.62-4.59A16.8,16.8,0,0,0,1118,42.18Z" transform="translate(-988.92 -32.46)"/>
  <path class="cls-1" d="M1059.23,94.58c.08.4,1.19.5-.32,1.13-4.74,1.83-8.86,2-13,4.15l-.06.73c-1.64.53-3.56,1.14-5.6,2a33.73,33.73,0,0,0-6.63,3.4,24.12,24.12,0,0,0-5.91,6.38,20,20,0,0,0-3.06,9.4,21,21,0,0,0,1.54,9.38,25.17,25.17,0,0,0,4.18,6.84c0-.35.13-.57.8.13a44.51,44.51,0,0,0,11,9l1.88.84a1,1,0,0,0,.89-.11l2.65,1.3,2.41,1.13c10.64,3.58,21.41,4.74,32,5.17a320.72,320.72,0,0,0,32.4-.47c4.7-.58,9.37-1.28,13.86-1.73,1.66-.13,3.44-.23,5.28-.34s3.79-.19,5.74-.38a34.62,34.62,0,0,0,11.36-2.76c-1-.82,2.55-3.28,4.08-6.66a8.8,8.8,0,0,0,1-4.32c-.14-1.08-.54-1.48-1.3-1a11.34,11.34,0,0,0,.58-2.83,12.94,12.94,0,0,0-.15-3c-.3-1.88-1-3.23-1.35-3.25a9.09,9.09,0,0,1-4-1.56l-1.36-.82c-.26-.14-.49-.29-.77-.46l-.89-.56c-1.26-.78-2.75-1.7-4.8-2.81-1.52-1-3.53-2.33-5.47-3.54a24,24,0,0,0-4.53-2.43c-1.25-.29-.11.68,1,1.64s2.09,1.89.93,1.62a51.19,51.19,0,0,1,8.51,5.63,18.74,18.74,0,0,1,2.72,2.84,11.47,11.47,0,0,1,1.51,2.72,8.26,8.26,0,0,1,.62,2.7,4.9,4.9,0,0,1-.18,1.73c-.27.62-.71,1.4-2.73,2.3a29.34,29.34,0,0,1-8.71,1.8l-1.36.11-1.48.09-3,.18q-3,.16-6,.27-11.91.42-24-.19c-1.38.05-3.75,0-6.87-.09s-7-.35-11.32-.78c-8.59-.85-18.95-2.59-28-6.8-.57-.25-1.11-.55-1.67-.82l-.82-.41-.67-.38a20.68,20.68,0,0,1-2.55-1.72,14.38,14.38,0,0,1-3.55-3.79,5.7,5.7,0,0,1-.58-1.33,4,4,0,0,1,0-.63,2.46,2.46,0,0,1,.23-.56,4.21,4.21,0,0,1,.82-.93,17.93,17.93,0,0,1,4-2.46c.85-.4,1.73-.78,2.66-1.16l2.83-1.15c3.61-1.46,6.49-2.47,8.59-3.08l1.49-.49a55.09,55.09,0,0,1,6.94-1.51,72.39,72.39,0,0,1,7.51-.72c5.12-.25,10.34-.09,14.77-.07l12.65-.39c-1.91-.61-3.67-1.21-5.19-1.76,4.26.55,8.53,1.11,10.22.89,9.21.11,4.19-1.65.88-3.63-2.44-1,1.09-1.62-2.77-2.79l7.11.93c.4-.61-8.8-.71-6.7-1.54,2.7.58,5.82.55,8.66.92-.88-1-9.81-1.51-9.27-2.32,1.55,0,7.85,2.13,8.52,1.12.14-.21-2.7-.58-4.12-.76,8.79.71,13.74.25,5.89-1.88,2.77.37,6.64,1.29,9.59,1.49l0,0c-1.46-.21-4-.73-5.31-.91l5,.65c-.24-.18-.52-.36-.82-.55-1.23-.28-2.46-.54-3.76-.71l3.31.44a27.12,27.12,0,0,0-2.7-1.35c-3.86-1.17-7.52-2.64-9.65-2.92L1102,94c-4.32-.62-8.79-1.23-13.42-1.63a102.14,102.14,0,0,0-14.39-.31c-2.48.16-5,.41-7.5.82A68.21,68.21,0,0,0,1059.23,94.58Z" transform="translate(-988.92 -32.46)"/>
  <path class="cls-1" d="M1065.79,148.11c0,.4,1.23.86-.8,1-6.34.25-11.52-.9-17.89.13l-.38.7a130.47,130.47,0,0,0-15.35,1.67,57.26,57.26,0,0,0-15.11,5.79,36.06,36.06,0,0,0-7.34,5.56,31.5,31.5,0,0,0-5.68,7.74c.38-.17.6-.19.14.92a54.86,54.86,0,0,0-3,7.66c-.84,2.73-1.51,5.57-2.07,8.23-.11.81-.23,1.62-.35,2.42a1.34,1.34,0,0,0,.34,1,41,41,0,0,0-.82,8.33,23.11,23.11,0,0,0,1.79,7.51,22.56,22.56,0,0,0,4.27,6.5,32.29,32.29,0,0,0,10.76,7.24c.9.4,1.8.75,2.68,1.08l2.6.91,2.59.81,2.62.73a99.66,99.66,0,0,0,10.58,2.15,140.37,140.37,0,0,0,21.36,1.39,206.87,206.87,0,0,0,21.66-1.29c6.16-.94,12.23-2.31,18-3.45,4.32-.82,9.24-1.67,14.11-2.73l3.63-.79c1.2-.27,2.38-.58,3.54-.87l3.42-.86,3.2-.94c-.49-.46.38-1.25,1.86-2.19s3.54-2.15,5.51-3.28c3.92-2.35,7.39-4.64,5.06-5,1.3-.48,2.74-1.11,4.19-1.7l2.16-.91c.7-.31,1.37-.64,2-.95l1.77-.88.75-.39.52-.3c.6-.36.91-.67.88-.83a7.1,7.1,0,0,1-.09-2c0-.74.2-1.41.21-2.18a2.1,2.1,0,0,0-.22-.86,2.77,2.77,0,0,0-.76-.9,7.4,7.4,0,0,0-2-1.07,3.57,3.57,0,0,1-.38-.25l-.23-.18-.14-.12-.42-.33c-1.15-.88-2.34-1.77-3.49-2.54a20.91,20.91,0,0,0-5.28-2.85c-.81-.2-.81,0-.42.35s1,.83,1.64,1.35c1.26,1,2.43,2.1,1.12,1.72a47.68,47.68,0,0,1,4.41,2.88c2,1.5,1.22,1,1.36,1.08,0,0-.14,0-.13-.07s0,0,0-.05h0l-2.46,1.12q-5.53,2.52-11.24,4.67a188.26,188.26,0,0,1-23.27,7.13,178.39,178.39,0,0,1-48.86,4.76,81,81,0,0,1-8.73-.23,101.11,101.11,0,0,1-14-2,75.61,75.61,0,0,1-8.12-2.23c-1.36-.46-2.79-1-4.12-1.54a31.42,31.42,0,0,1-3.58-1.74,15.94,15.94,0,0,1-2.66-1.92,6.21,6.21,0,0,1-1.34-1.7,4.58,4.58,0,0,1-.48-1.95,17.7,17.7,0,0,1,.24-3.75c.11-.77.25-1.59.42-2.47l.51-2.69c.35-1.77.71-3.4,1.12-4.9a19.75,19.75,0,0,1,3.14-7,16,16,0,0,1,5.47-4.32,39,39,0,0,1,7.84-2.88c1.41-.36,2.85-.69,4.3-1s2.84-.59,4.22-.78c2.74-.47,5.36-.75,7.77-1s4.65-.35,6.65-.36,3.76,0,5.25,0c.73,0,1.45,0,2.18,0a138.11,138.11,0,0,1,20.55,2.37,166.41,166.41,0,0,1,18.67,4.77c2.45.72,4.93,1.43,7.44,2.29s5.07,1.8,7.67,2.78l-5.65-4.12c4.88,2.45,9.88,5.17,12,5.77,5.7,2.3,7.2,2.3,6.71,1.43s-2.81-2.73-4.52-4.48c-2.65-2.11,1.82-1-2.48-4,3.31,1.73,5,2.6,8.33,4.21.33-.2-2.3-1.32-4.64-2.48s-4.41-2.24-3-2.12a93.39,93.39,0,0,0,10.2,4.82c-.41-.64-3.26-2-5.89-3.45s-5.06-2.75-4.6-3c.94.37,3.13,1.84,5.24,3.08s4.13,2.26,4.67,1.91c.22-.13-3.09-1.7-4.73-2.55,5.16,2.39,9.27,3.68,11,3.79.83.08,1.06-.1.54-.59a30.68,30.68,0,0,0-4-2.5c3.13,1.44,7.48,3.44,10.92,4.08l0,0c-1.68-.43-4.51-1.51-6-2.09a57.54,57.54,0,0,0,5.7,1.77c-.27-.22-.57-.46-.89-.69l-4.22-1.57c1.24.46,2.49.85,3.74,1.22-.84-.62-1.81-1.23-2.87-1.95-4.16-2.13-7.89-5.08-10.29-6.27-4.8-2.48-9.72-5.32-15.11-8a126.2,126.2,0,0,0-17-7.11A128.68,128.68,0,0,0,1065.79,148.11Z" transform="translate(-988.92 -32.46)"/>
</svg>
