<svg id="Слой_1" data-name="Слой 1" xmlns="http://www.w3.org/2000/svg" viewBox="0 0 145.29 170.71">
  <defs>
    <style>
      .cls-1 {
        fill: #211a1e;
      }
    </style>
  </defs>
  <path class="cls-1" d="M428.2,217.23c0,.44,1.1.91-.69,1.08-.71,0-1.39.07-2.06.12s-1.32.07-2,.08-1.29,0-1.93,0l-1.89.1a23.84,23.84,0,0,0-7.72,1.42l-.16.81-3.16.82c-1.05.3-2.09.69-3.16,1.05l-1.6.56-1.57.69c-1,.47-2.12.91-3.15,1.46a52.72,52.72,0,0,0-5.24,3.82c-.83.72-1.7,1.35-2.46,2.14l-2.32,2.34a43.64,43.64,0,0,0-7.47,11c.34-.09.6-.08.28.75-.18.42-.41.85-.6,1.32l-.56,1.47c-.38,1-.86,2.08-1.23,3.23l-1,3.65a15.45,15.45,0,0,0-.41,1.91c-.11.64-.25,1.29-.32,1.94s-.05,1.55-.08,2.31a1.22,1.22,0,0,0,.53.87c0,.57-.06,1.14-.08,1.69s0,1.07,0,1.59c0,1,0,2,.07,3,1.9,12.3,8.17,22.67,15.72,30.92s16.32,14.69,24.94,21.33c3.88,2.59,7.77,5.16,11.3,7.89,5.11,4.16,11.12,10.07,15.9,14.36.93-2.55,13.54,6.79,12.87,2.8,3.19,2.84,8,7.1,8.72,6.77,2.16-1,6.26-.71,15.72,5.66,3.56,2.65,8.17,7.74,9.65,8.42,2.32,1.07-3.41-4.87-1.08-3.81-12.31-10.94-24.58-21.46-36.85-32L436.7,314.82l-9.22-8.1c-3.09-2.73-6.1-5.42-9-8.12a64.55,64.55,0,0,1-4.92-4.33,71.6,71.6,0,0,1-7-7.68,51.32,51.32,0,0,1-3.42-4.94,43.76,43.76,0,0,1-2.88-5.63,31.59,31.59,0,0,1-2.64-12.41,21.76,21.76,0,0,1,.21-3,28.57,28.57,0,0,1,.62-2.87,7.45,7.45,0,0,1,.46-1.38l.5-1.38.69-1.31a10.2,10.2,0,0,1,.71-1.29A27.83,27.83,0,0,1,409.2,244a34.19,34.19,0,0,1,9.61-4.33l2.17-.51c.69-.15,1.36-.2,2-.3a24.73,24.73,0,0,1,3.28-.25,8.86,8.86,0,0,1,1.35-.07l1.53.06.77,0,.76.1a25.75,25.75,0,0,1,3.18.5l1.66.33,1.64.47c1.11.25,2.18.69,3.27,1a63,63,0,0,1,11.65,5.81,66,66,0,0,1,9.27,6.27c-.39-.83-.81-1.59-1.21-2.32L459,248.7c2.71,2.83,5.1,5.94,6.34,6.92.76.75,1.35,1.38,1.83,1.87a8.66,8.66,0,0,0,1.21,1c.63.41,1,.33,1.08-.08.24-.81-.23-3-.57-4.89-.89-2.45,2.11-.4.3-4.07.88,1.16,1.5,2.05,2.14,2.93s1.2,1.83,2,3c.38,0-.88-1.9-2.12-3.51s-2.33-3.08-1.24-2.64a40.74,40.74,0,0,0,2.59,3.58,37.19,37.19,0,0,1,2.57,3.7c.19-.71-1.13-2.91-2.41-4.92-.68-1-1.33-1.93-1.75-2.65s-.64-1.17-.37-1.23a25.56,25.56,0,0,1,2.59,4.14c.92,1.75,1.87,3.3,2.51,3.24.29,0-1.35-2.56-2.17-3.81,1.36,1.86,2.64,3.48,3.6,4.83.5.67,1,1.24,1.35,1.72a10.06,10.06,0,0,0,1,1.1c.54.5.85.5.85-.15a12.79,12.79,0,0,0-1.17-4c1.59,2.6,3,6.67,4.45,9.51a0,0,0,0,0,0,0c-.63-1.46-1.52-4.09-2.24-5.38.86,1.6,1.55,3.29,2.3,4.94,0-.33.05-.69.06-1.07a25.52,25.52,0,0,0-1.55-3.88c.57,1.07,1,2.19,1.55,3.31a19.57,19.57,0,0,0-.34-3.31c-1.25-4.29-2.67-8.5-4-10.55a73,73,0,0,0-21-21.47A61.7,61.7,0,0,0,444.24,220c-1.27-.39-2.54-.81-3.83-1.15l-3.93-.87c-1.35-.23-2.76-.39-4.14-.56l-1-.12-1,0Z" transform="translate(-377.71 -196)"/>
  <path class="cls-1" d="M476.77,306.24c0-.45-.9-.82.41-1.14a43.87,43.87,0,0,1,5.88-.54,16.6,16.6,0,0,0,5.81-1.23l.06-.78c1.58-.37,3.2-.81,4.82-1.35.82-.26,1.63-.56,2.44-.9s1.64-.66,2.46-1a50.47,50.47,0,0,0,14-12.82c-.3,0-.54-.13-.23-.68,1.47-2.09,3.65-4.85,5.52-8l.62-1.48a.91.91,0,0,0-.23-.78c.79-1.42,1.37-2.75,2-3.94a56.15,56.15,0,0,0,2.51-13,55.56,55.56,0,0,0-.65-13.16,63.23,63.23,0,0,0-9.6-24.18c-2.32-3-4.83-5.69-7.19-8.27-3.27-4-7.56-9-11.44-12.2-.52,1.23-3.29.16-5.91-.53s-5.07-1.09-4.8.6c-2.53-1.76-6.63-4-7.16-3.42a6.53,6.53,0,0,1-3.92,1.76,28.65,28.65,0,0,1-8.36-.54,46.67,46.67,0,0,1-4.76-1.65,11.11,11.11,0,0,0-3.47-1c-1,.12,0,.75.8,1.35s1.66,1.21.78,1.34c10.38,3.18,20,7.83,27.84,14.25a60.1,60.1,0,0,1,5.55,5.14,51,51,0,0,1,4.73,5.79,47.07,47.07,0,0,1,6.61,13.43,32.07,32.07,0,0,1,2.61,10.89c0,.67.09,1.36.11,2.07s0,1.43,0,2.17l-.16,2.21c-.1.75-.21,1.52-.32,2.29a36.38,36.38,0,0,1-3,9.41,35.84,35.84,0,0,1-5.48,8.41,30.93,30.93,0,0,1-7,5.95c-.3.18-.59.39-.89.55l-.9.47c-.59.32-1.17.63-1.76.88a30.39,30.39,0,0,1-3.41,1.24,26.47,26.47,0,0,1-5.4,1c-.33.06-.66.09-1,.14-.75,0-1.52.08-2.3.08s-1.49-.08-2.26-.08-1.53-.17-2.3-.23l-2.31-.41a52.72,52.72,0,0,1-8.41-2.67,31,31,0,0,1-6.85-3.11l.34.86.39.79c.25.52.49,1,.71,1.52-2-1.81-3.59-3.86-4.53-4.42-.56-.47-1-.89-1.31-1.2a4.42,4.42,0,0,0-.91-.64c-.51-.25-.82-.16-1,.17-.36.63-.31,2.3-.26,3.81.23,1-.24,1.12-.64,1.37s-.75.63-.11,2.09L442,280.69c-.46-.69-.86-1.43-1.43-2.38-.36.05.56,1.53,1.49,2.76s1.79,2.35.86,2.11a32.42,32.42,0,0,0-2-2.78,17.69,17.69,0,0,1-1.89-2.94,2.41,2.41,0,0,0,.32,1.62c.33.71.79,1.57,1.27,2.38,1,1.55,2,3,1.57,3.12a15,15,0,0,1-2-3.31c-.64-1.43-1.34-2.66-1.93-2.61-.31.07.93,2.1,1.54,3.13-.52-.75-1-1.46-1.51-2.11s-.84-1.31-1.23-1.86-.74-1-1-1.45a7.45,7.45,0,0,0-.74-1c-.43-.44-.73-.46-.84.09A7.85,7.85,0,0,0,435,279c-1.2-2.27-1.79-5.88-2.53-8.45l0,0a35.42,35.42,0,0,0,1.07,4.8,34,34,0,0,1-1.22-4.45,6.79,6.79,0,0,0-.29.9,15.35,15.35,0,0,0,.72,3.5,25.29,25.29,0,0,1-.85-3,13.47,13.47,0,0,0-.33,2.91q.21,1.47.42,2.88c.16.93.38,1.82.58,2.67l.31,1.22c.12.38.26.73.39,1.07a13.22,13.22,0,0,0,.81,1.71,44.85,44.85,0,0,0,18.42,16.68,46.17,46.17,0,0,0,11.8,4.06A47.44,47.44,0,0,0,476.77,306.24Z" transform="translate(-377.71 -196)"/>
</svg>
