<svg id="Шар_7" data-name="Шар 7" xmlns="http://www.w3.org/2000/svg" viewBox="0 0 162.78 108.49">
  <defs>
    <style>
      .cls-1 {
        fill: #211a1e;
      }
    </style>
  </defs>
  <g>
    <path class="cls-1" d="M795.08,318.76h.09l-.81.2h-.08a1.5,1.5,0,0,1-.32,0h0a3.41,3.41,0,0,1-.84-.19,3,3,0,0,1-.65-.32.42.42,0,0,1,.13.18,3.47,3.47,0,0,1,.29.3c0,.12-.13.06-.18,0l0,.08.18.35a.25.25,0,0,1-.1-.08c.26.43-.18,1.11-.95,1.48a4.7,4.7,0,0,1-3.22.09,3.4,3.4,0,0,1-1.86-.43,4.72,4.72,0,0,1-1-2.46,2.75,2.75,0,0,1-2.33-.28c-.75-.35-1.49-.77-2.3-.34-.11-.76-.15-1.89-.64-1.92a4,4,0,0,1-4-3.13c-.14-1,.72-2.33.49-2.7s-.49-.09-.8.21-.62.54-.81.23a19.67,19.67,0,0,0,.74,11.52,18.75,18.75,0,0,0,8.57,9.86,28.42,28.42,0,0,0,5.13,1.33,16.31,16.31,0,0,0,4.42,0c.4-.06.8-.14,1.21-.22s.87-.23,1.3-.37a14.56,14.56,0,0,0,2.45-1.08,14.78,14.78,0,0,0,6.46-7.37,13.75,13.75,0,0,0,.7-7.72c-.06-.22-.14-.44-.21-.65a10.66,10.66,0,0,0-3.3-5.13,9.19,9.19,0,0,0-4.57-2.13,10.77,10.77,0,0,0-4,.6,6.22,6.22,0,0,1,1.38,1,6.56,6.56,0,0,0-1.61-.16,1.85,1.85,0,0,0-1.1.31c-1.2.55-1.27,1.07-1,1.45s.87.79,1.26,1.32a1.16,1.16,0,0,1,.27.89,1.35,1.35,0,0,0,.36.9,4,4,0,0,0-.91.07c.05.23.29.12.53,0s.47,0,.36.37a.44.44,0,0,0-.48,0c-.15.06-.28.18-.42.22.27.55,1,.06,1,.73-.06.08-.25-.16-.43-.25s-.37-.12-.26.28c0,.15.24.12.35.12a.64.64,0,0,0-.25.83c.1.3.4.69.52,1-.06-.17-.11-.22-.1-.2h0c.08.11,0-.07,0,0s0,0,0,0h0s0-.06,0,0,0,0,0,0l0,0a1.08,1.08,0,0,1,.1.23,1,1,0,0,1,0,.14c0,.06,0,.12,0,.17a4,4,0,0,1,0,1.19,1.55,1.55,0,0,1-.12.39,3.13,3.13,0,0,1,.5-.59,3.28,3.28,0,0,1,.45-.31A2.33,2.33,0,0,1,795.08,318.76Z" transform="translate(-770.5 -224.43)"/>
    <path class="cls-1" d="M780.44,277c.36-.33-.25-1.56,1.37-.34,1.24,1,2.31,1.9,3.29,2.8l1.42,1.32.42.38.49.42q.48.42,1,.81a23.54,23.54,0,0,0,8.93,4.63l.7-.6a55.28,55.28,0,0,0,14.79,3.29,48.73,48.73,0,0,0,14.68-2.05c.69-.24,1.36-.45,2.08-.75l1.52-.63,2.33-1c1.55-.65,3.14-1.25,4.71-1.87-.26-.22-.42-.44.19-.75a68.16,68.16,0,0,1,10.43-2.77c.57-.19,1.15-.36,1.72-.52a1,1,0,0,0,.51-.74c.91-.17,1.76-.34,2.58-.46l2.37-.3a130.54,130.54,0,0,1,30.47-4h4l4,.16a44.34,44.34,0,0,1,7.37.93,32.33,32.33,0,0,1,6.87,2.24,15.69,15.69,0,0,1,5.26,3.72,8.8,8.8,0,0,1,2.67,4.29,9.21,9.21,0,0,1-.19,5.41A14.66,14.66,0,0,1,914,294.7a25.31,25.31,0,0,1-3.84,3.75,41.87,41.87,0,0,1-4.55,3.14l-1.17.67-1.2.65c-.79.41-1.55.85-2.3,1.23,1.12,1-1.82,3.72-4.8,6.16s-6,4.53-3.83,5.26c-1.14.41-2.43.85-3.74,1.24l-1.93.62-1.86.54c-2.35.76-4.19,1.28-4.29,1.72-.29,1.29-1.22,2.78-3.77,4.41s-6.76,3.37-13.66,4.3a47,47,0,0,1-9.12-.27c-3-.29-5.49-.78-6.47-.62-.7.1-.66.3-.27.56a14.5,14.5,0,0,0,2.14.85c1.72.61,3.48,1.15,1.92,1.41a99.26,99.26,0,0,0,58.8-12.39c1.12-.66,2.17-1.23,3.34-2s2.33-1.5,3.48-2.33a51.63,51.63,0,0,0,6.7-5.73,37.3,37.3,0,0,0,6-8,28.59,28.59,0,0,0,3.54-11.13,21.65,21.65,0,0,0,.12-3.12l-.06-1.56c0-.52-.12-1-.19-1.54a24.69,24.69,0,0,0-.6-3.06c-.29-1-.6-2-.95-3a28.47,28.47,0,0,0-6.62-9.79,35.67,35.67,0,0,0-8.19-6,50.61,50.61,0,0,0-8.27-3.55,86.26,86.26,0,0,0-9.39-1.86l-1.64-.21-1.57-.14-3.35-.31c-2.33-.15-4.86-.35-7.55-.41a153.85,153.85,0,0,0-37.37,3.35A149.11,149.11,0,0,0,828,263.22c-3,1-6.82,2.74-7.59,2.84a26.37,26.37,0,0,1-6,.71,38.42,38.42,0,0,1-6.17-.38,22.22,22.22,0,0,1-4.64-1.16,13.47,13.47,0,0,1-3-1.55l-.53-.41-.83-.67c-.53-.44-1-.83-1.37-1.18l-1.13-1a23,23,0,0,1-1.82-1.94c-.27-.31-.51-.63-.75-.95l-.21-.31a1.59,1.59,0,0,1-.24-.84,2.49,2.49,0,0,1,0-.46,1.3,1.3,0,0,0,0-.13l.1-.27c.08-.18.17-.36.26-.54a14.09,14.09,0,0,1,2.4-2.88c1-1.06,2.25-2,2.3-2.19l.66-.36a78.72,78.72,0,0,1,10.89-5.71c-1.89-.07-3.71-.09-5.34-.06,4.12-1.23,8.12-1.67,9.61-2.27l1.44-.32,1.15-.24a14.17,14.17,0,0,0,1.54-.44c.71-.28.85-.62.58-1-.51-.77-2.66-1.69-4.58-2.47-1.36-.33-1.19-.86-1.19-1.39s-.18-1-2.45-1.19l2.15-.23,1.87-.1c.6,0,1.21,0,1.87,0a21.26,21.26,0,0,1,2.18.08c.22-.4-2.32-.44-4.58-.22-1.13.07-2.19.21-2.85.21s-.9-.14-.38-.53c3.14-.13,6.69-.74,10-.31-.5-.64-3.45-1-6.16-.92l-2,.05c-.61,0-1.16.07-1.63.07-.93,0-1.51,0-1.42-.33a23.23,23.23,0,0,1,5.54-.07c2.25.15,4.32.4,4.71-.23.08-.12-.75-.25-1.82-.35s-2.36-.08-3.22-.07c5.3-.43,9.6.1,11.34,0,.87,0,1.13-.28.53-.78a6.05,6.05,0,0,0-1.57-.89,19.22,19.22,0,0,0-3.08-1.06,20.67,20.67,0,0,1,3,.61c1,.24,2.12.64,3.2,1s2.11.86,3.14,1.26,2,.91,2.87,1.28c0,0,0,0,0,0-.88-.42-2-1.1-3.25-1.63a23.05,23.05,0,0,0-3.31-1.27,37,37,0,0,1,6.26,2.47c-.24-.31-.53-.65-.84-1l-1.12-.63c-.39-.19-.78-.37-1.18-.54a17,17,0,0,0-2.47-.94,20.36,20.36,0,0,1,2.16.74c.71.28,1.44.52,2.12.86a21.48,21.48,0,0,0-3.27-2.53c-5.08-2.51-10.59-4.08-13.6-4a57.3,57.3,0,0,0-13.72,1.64,89.47,89.47,0,0,0-12.29,3.9,27.07,27.07,0,0,0-2.85,1.4c-.84.47-1.55.92-2.24,1.38-1.35.92-2.54,1.83-3.7,2.8a42.82,42.82,0,0,0-3.4,3.17c-.57.59-1.18,1.28-1.82,2.08s-1.18,1.58-1.7,2.4a28,28,0,0,0-1.44,2.56c-.22.42-.45.93-.66,1.44s-.43,1-.61,1.55a25.48,25.48,0,0,0-1.41,6.45,22.22,22.22,0,0,0,.37,6.56,22,22,0,0,0,.93,3.16c.17.52.43,1,.65,1.51s.46,1,.74,1.49.63,1.06,1,1.58l.51.79.5.72c.54.76,1.09,1.48,1.66,2.18A43.22,43.22,0,0,0,780.44,277Z" transform="translate(-770.5 -224.43)"/>
  </g>
</svg>
