<svg id="Шар_6" data-name="Шар 6" xmlns="http://www.w3.org/2000/svg" viewBox="0 0 184.64 125.57">
  <defs>
    <style>
      .cls-1 {
        fill: #211a1e;
      }
    </style>
  </defs>
  <g>
    <path class="cls-1" d="M407.7,754.38c-.25-.67-1-1.13-.38-1.76,2.21-1.66,5.08-.07,7.4-1.54l-.16-1.17c2.18-.14,4.47-.11,6.8-.1,4-1.13,8.08-2.15,12.22-3.09-.16-.4-.26-.79.14-1a12.4,12.4,0,0,1,3.07-.41l3.71-.06,1.11-.27a1.59,1.59,0,0,0,.35-.94,21.31,21.31,0,0,1,3.17.11A156.84,156.84,0,0,1,464.71,741c3.39-.32,6.85-.54,10.38-.58a106.19,106.19,0,0,1,10.79.32,36.6,36.6,0,0,1,9.5.21c4.35,1.08,9.21,4.08,12.73,6.32.73-1.94,3.64-2.08,6.48-2s5.64.3,6-2.08l2,1.73c.71.61,1.41,1.24,2.07,1.77,1.3,1.11,2.41,1.9,2.94,1.6a8.34,8.34,0,0,1,6.25-.92,12.74,12.74,0,0,1,4.54,2.22q.63.46,1.29,1c.42.4.86.84,1.3,1.31a21.81,21.81,0,0,1,2.64,3.47,18.31,18.31,0,0,1,1.49,3.92,31.77,31.77,0,0,1,.74,4.45c.31,2.9.11,5.37.51,6.3.28.44.57.4.87.13.16-.08.3-.51.44-.88s.27-.84.4-1.3c.57-1.82.86-3.74,1.64-2.23a41.14,41.14,0,0,0-4.13-14.89,48.28,48.28,0,0,0-7.73-11.29,69.29,69.29,0,0,0-18.47-14.13,107.93,107.93,0,0,0-19.29-8,159.54,159.54,0,0,0-19.6-4.71c-2.32,0-7.83-.49-15-.79a212,212,0,0,0-25,.44,178.59,178.59,0,0,0-26.05,4,180.6,180.6,0,0,0-18.29,5.29l-1.35.61A66.33,66.33,0,0,0,382,728.81a44.26,44.26,0,0,0-10.58,9.52,48,48,0,0,0-5.5,11,25.41,25.41,0,0,1,4.63-2.59c-2.57,2.76-4.83,6.12-4.85,7.88-1.18,4.2-.38,5.41.78,5.28a8.56,8.56,0,0,0,2.19-.76,17.45,17.45,0,0,1,2.7-1.07c1-.55,1.59,0,2.26.39a2.11,2.11,0,0,0,2.6-.1c-.55.77-.84,1.4-1.22,2s-.62,1.25-1,2.09c.52.31.89-1,1.45-2.2a4.77,4.77,0,0,1,.87-1.38c.3-.25.58-.22.82.3-1.27,1.27-1.55,3.31-2.09,4.9a1.56,1.56,0,0,0,1.12-.82,13.66,13.66,0,0,0,1.07-1.64,9.91,9.91,0,0,1,1.12-1.42c.39-.31.74-.42,1-.16-.12.46-1.11,1.17-1.93,2a4.19,4.19,0,0,0-.81,1.25.78.78,0,0,0,.43,1c.19.1.37-.22.64-.63a13.7,13.7,0,0,0,.68-1.29c-.84,2.32-.52,4.18.09,4.91a1.2,1.2,0,0,0,1.29.36,5.1,5.1,0,0,0,1.86-1.1c-.13.26-.21.53-.38.81l-.25.44c-.08.15-.13.3-.2.45a3.19,3.19,0,0,0-.36,1.86h0c.06-.28.2-.66.32-1a5.34,5.34,0,0,0,.36-.95l-.18.91c0,.31-.06.62-.1.93l.83-.29A5.51,5.51,0,0,0,382,769a1.93,1.93,0,0,0,.25-.62,6.84,6.84,0,0,0-.19,1.1l.94-.36,1-.32c.17-.12.35-.22.52-.32s.42-.18.62-.26a9.94,9.94,0,0,1,1.16-.4c.38-.11.65-.19.93-.29a.87.87,0,0,0,.51-.31,29,29,0,0,1,7.57-6.63,57.7,57.7,0,0,1,5.82-3.28C403.18,756.26,405.41,755.3,407.7,754.38Z" transform="translate(-365.11 -644.81)"/>
    <path class="cls-1" d="M441,653.4c.32.25.88.2.65.79-.79,1.7-2.85,2.63-3.29,4.77l.57.37c-.38.7-.8,1.43-1.16,2.21s-.64,1.63-.91,2.47a20.79,20.79,0,0,0,1.33,8.71c.21-.14.41-.23.58,0a11.18,11.18,0,0,1,.67,1.85c.24.68.52,1.42.84,2.16.14.2.28.39.43.57a.85.85,0,0,0,.58,0c.35.62.63,1.19.89,1.72a21.35,21.35,0,0,0,7.17,4.85,17.13,17.13,0,0,0,9,1.17,16.73,16.73,0,0,0,5.68-2.21,14.88,14.88,0,0,0,1.72-1.75c.54-.55.94-1.17,1.41-1.66a31.43,31.43,0,0,0,4.42-4.52c-1.05-.49-1.28-1.84-1.69-2.94s-1-2-2.25-2.15a5.45,5.45,0,0,0,.4-1.32c0-.43-.08-.77-.39-.85-1.91-.43-4.06-1.45-5.33-1.79-.21,0,0-.21,0-.34s.13-.27,0-.21a.39.39,0,0,0-.46.19c-.11.16-.29.21-.44.31a4,4,0,0,1-.47.23l-.18.08h0l-.23.07-.19,0-.06,0s0,0-.05.08,0,.09,0,.17a4.9,4.9,0,0,1-.41,1.27,3.61,3.61,0,0,1-.79,1.13c-.05,0-.11.06-.09.11s0,0,0,0,0,0,0,0,0,0,0,0v.11a.59.59,0,0,1-.45.49,2.89,2.89,0,0,1-1.71-1.33,4.1,4.1,0,0,1-.69-2.29.74.74,0,0,1,.42-.64.38.38,0,0,1,0-.1,12,12,0,0,0,.83-.9,12.65,12.65,0,0,0,1.11-1.51,11.57,11.57,0,0,1,1.23-2.26l-1.12-.91c.73-.14,1.46-.22,1.7-.66.75-.6.94-1.11.78-1.72a7.37,7.37,0,0,0-1.16-2c-.68-.61,0-1.78-1.08-2.33.73-.07,1.1-.11,1.83-.12,0-.71-2.2.58-1.85-.54.75.14,1.52-.35,2.29-.35-.31-.91-2.7-.08-2.71-.92.43-.31,2.34.91,2.41-.17,0-.22-.79-.22-1.2-.17a5.76,5.76,0,0,0,2.6-1.1c.39-.45.19-1-1.11-1.59.9,0,2.12.48,3.05.41v0c-.46-.06-1.25-.35-1.69-.36.53,0,1.07.09,1.59.14q-.11-.24-.24-.48a4,4,0,0,0-1.23-.31c.36,0,.73.06,1.09.09a6.39,6.39,0,0,0-.9-1.07c-1.31-.73-2.74-1.68-3.52-1.62a25,25,0,0,0-9.46,2A22.1,22.1,0,0,0,441,653.4Z" transform="translate(-365.11 -644.81)"/>
  </g>
</svg>
