<svg id="Шар_5" data-name="Шар 5" xmlns="http://www.w3.org/2000/svg" viewBox="0 0 215.54 200.27">
  <defs>
    <style>
      .cls-1 {
        fill: #211a1e;
      }
    </style>
  </defs>
  <g>
    <path class="cls-1" d="M768.93,655.22c.54.23,1.33-.2,1.19.9-.71,3.32-3.48,5.14-4.16,8.48l.79.57c-1.3,2.28-2.77,4.62-4.14,7.06-1.64,4.83-3.21,9.65-4.61,14.51.37,0,.69,0,.64.56a66.07,66.07,0,0,1-2.88,7.48c-.1.44-.2.88-.29,1.31a1.1,1.1,0,0,0,.54.7c-.48,1.28-1,2.39-1.44,3.41-3.13,14.56-5.81,29.45-8.62,45.54a80.7,80.7,0,0,1-1,10.31c-1.09,4.77-3.45,10.56-4.92,15.09,3.4.25,1.75,11.81,5.63,10.53-1,3-2.33,7.53-1.49,8,2.54,1.48,5,4.69,4.44,13.16-.46,3.25-2.92,7.77-2.67,9,.41,2,3-3.56,3.44-1.58,3.61-11.54,6.81-22.95,10-34.4s6.43-22.89,10.19-34.46c.57-4.17,5-19.6,10.41-35.53s11.59-32.38,14.48-39l.44-1.23c1.52-3.61,3.07-7.66,4.44-11.62a86.93,86.93,0,0,0,3.19-11.17c.43-3.11.73-6.33,1.06-9.54-1.05,1.11-2.07,2.13-3,3,1.27-2.88,2.53-5.76,2.44-7.11,1.31-6.72-1.71-3.88-4.82-2.37-1.64,1.33-2.08-1.59-4.13.72.86-1.92,1.29-2.89,2.16-4.82-.79-.59-2.09,6.18-2.94,4.23,1.1-1.74,1.47-4,2.34-6-1.47.17-3.3,6.55-4.32,5.77.15-1.17,3.89-4.8,2.59-5.79-.26-.2-1.13,1.73-1.56,2.69,2.09-6.18,2.12-10.08-1.79-5.27.85-1.88,2.61-4.31,3.27-6.41h0c-.48,1-1.51,2.59-1.93,3.51l1.53-3.39c-.27.09-.56.21-.85.34A15.79,15.79,0,0,0,791.1,615l1-2.25a15.49,15.49,0,0,0-2.18,1.36c-2.08,2.31-4.56,4.33-5.21,5.79C779.06,631.44,773.68,643.24,768.93,655.22Z" transform="translate(-722.84 -612.04)"/>
    <path class="cls-1" d="M798.19,713.06c.34.11.79-.19.77.47-.22,2-1.81,3.23-2,5.24l.5.29c-.66,1.42-1.41,2.88-2.15,4.37-.79,2.93-1.52,5.85-2.24,8.77.22,0,.42,0,.4.31a34.75,34.75,0,0,1-1.52,4.52l-.15.79a.69.69,0,0,0,.34.41c-.27.76-.54,1.43-.8,2-1.62,8.71-3.23,17.62-5.28,27.21a50,50,0,0,1-.87,6.18c-.8,2.83-2.48,6.22-3.54,8.88,2,.29.44,7.19,2.84,6.62-.72,1.78-1.85,4.44-1.37,4.78,1.41,1,2.72,3.15,1.75,8.3-.53,2-2.36,4.54-2.3,5.32.08,1.25,2.09-2,2.18-.71,6.24-13.63,10.65-27.39,15.63-41.6.43-2.57,3.38-12,6.36-22s6-20.37,7.47-24.58l.19-.78a74.77,74.77,0,0,0,3.15-14.5c0-1.94-.06-3.93-.12-5.91-.54.77-1.07,1.48-1.56,2.08.52-1.85,1.06-3.71.89-4.52.16-4.19-1.38-2.18-3.09-1-.86,1-1.37-.76-2.4.8l.85-3.08c-.51-.28-.68,3.89-1.37,2.8a25.78,25.78,0,0,0,.85-3.79c-.85.24-1.35,4.22-2,3.83,0-.7,1.88-3.21,1-3.68-.17-.09-.51,1.13-.67,1.75.67-3.88.31-6.18-1.56-3a37.81,37.81,0,0,0,1.34-4.1h0c-.19.63-.65,1.68-.81,2.26l.59-2.15c-.16.08-.32.18-.48.28a9.57,9.57,0,0,0-.63,1.59l.4-1.43a9.69,9.69,0,0,0-1.17,1c-1,1.56-2.3,3-2.55,3.88C802.63,698.38,800.35,705.72,798.19,713.06Z" transform="translate(-722.84 -612.04)"/>
    <path class="cls-1" d="M774.69,662.85c0-.63-.7-1.26.43-1.55,3.53-.57,6.37,1.52,9.91.93.08-.33.17-.67.25-1,2.74.43,5.59,1,8.5,1.45,5.36-.19,10.69-.44,16-.88-.15-.37-.22-.71.31-.85,2.2-.3,5.26,0,8.43.07l1.4-.2a1.22,1.22,0,0,0,.49-.81c1.43,0,2.71.07,3.89.16,15.5-2.32,31.18-5.17,48.11-8.26A84,84,0,0,1,883,649.09c5.11-.65,11.7-.36,16.71-.53-1-3.54,11.09-6,8.42-9.52,3.33-.12,8.32-.36,8.51-1.39.56-3.1,2.87-6.75,11.5-9.23,3.4-.69,8.77.18,9.93-.52,1.83-1.12-4.61-1.8-2.78-2.92-12.78.46-25.27,1.34-37.79,2.29s-25.07,1.87-37.92,2.35c-4.34,1-21.26,2.19-39,2.79s-36.34.64-43.92.27l-1.38,0c-8.28-.23-18.33-.08-25.37,1.17-3.23.78-6.52,1.74-9.8,2.66,1.5.62,2.89,1.24,4.1,1.85-3.32-.14-6.64-.29-7.93.33-7.12,1.34-3.16,3.24-.49,5.76,1.93,1.12-.76,2.7,2.29,3.86l-5.56-.27c-.28,1,6.87-.34,5.28,1.28-2.13-.43-4.54.11-6.77,0,.74,1.41,7.7.74,7.32,2.07-1.21.3-6.21-2-6.68-.33-.09.34,2.13.45,3.25.51-6.87.33-10.71,1.83-4.49,3.86-2.18-.12-5.23-.92-7.54-.75v0c1.15.09,3.12.49,4.18.54l-3.91-.2a7.38,7.38,0,0,0,.66.73,16.18,16.18,0,0,0,3,.48l-2.6-.13a16.63,16.63,0,0,0,2.17,1.64c3.07,1.18,6,2.87,7.67,3C747.51,661.88,761.13,662.68,774.69,662.85Z" transform="translate(-722.84 -612.04)"/>
  </g>
</svg>
